<svg width="379" height="346" viewBox="0 0 379 346" fill="none" xmlns="http://www.w3.org/2000/svg">
<path d="M167.767 73.6985C167.767 83.5708 165.511 102.051 165.511 102.051L161.74 102.358L160.043 101.997C160.043 101.997 158.238 98.5135 155.224 96.3482C152.228 94.1829 151.741 94.9042 149.81 95.6262C147.879 96.3482 145.117 95.8605 143.782 93.8034C142.464 91.7641 144.882 90.4469 146.074 91.4031C147.283 92.3594 148.366 93.8034 149.449 92.2512C150.532 90.6811 148.853 90.5544 145.352 86.9451C141.868 83.3358 142.229 77.4701 147.355 78.9141C150.098 79.6902 152.805 82.6501 154.718 85.2484C151.812 76.4419 149.863 66.66 153.544 62.3828C161.017 53.7024 167.767 63.8268 167.767 73.6985ZM174.986 67.2018C168.236 69.6021 167.766 85.9895 167.766 85.9895L167.279 94.6521C167.279 94.6521 169.373 91.9265 176.43 83.8955C183.504 75.8644 181.736 64.7831 174.986 67.2018Z" fill="#9EA9F0"/>
<path d="M278.289 145.149C277.044 145.78 273.615 147.333 269.771 147.441C265.926 147.532 264.88 147.947 264.573 148.163C264.248 148.362 257.408 173.556 253.456 176.064C249.503 178.555 244.937 176.101 243.169 174.657C241.4 173.195 238.603 169.152 238.603 169.152L248.98 158.757C248.98 158.757 250.55 161.301 252.211 161.933C253.871 162.546 259.574 149.191 260.205 146.087C260.837 142.965 262.912 142.441 265.403 143.596C267.894 144.734 276.304 144.516 278.596 143.38C280.888 142.243 279.535 144.516 278.289 145.149ZM211.839 262.62L216.585 262.367H216.603L216.802 257.458L211.099 258.414L211.839 262.62ZM226.98 262.367H226.998L231.762 262.62L232.791 256.7L226.745 256.555L226.98 262.367ZM234.434 121.832C234.2 121.706 233.947 121.652 233.712 121.615C233.315 122.138 232.954 122.77 232.629 123.799C232.052 125.622 230.499 127.228 230.499 127.228C230.499 127.228 231.221 122.752 230.283 121.2C229.344 119.648 229.399 121.922 222.811 118.872C216.206 115.804 212.001 116.472 210.179 118.078C208.374 119.703 207.381 122.391 207.327 123.907C207.273 125.405 207.219 126.091 207.219 126.091C207.219 126.091 207.165 122.139 205.775 121.146C205.323 120.839 205.035 120.677 204.836 120.586C204.692 120.586 204.547 120.569 204.367 120.586C202.544 120.623 202.436 124.268 203.537 125.983C204.62 127.697 206.244 127.066 207.165 128.167C208.103 129.25 207.688 133.148 212.723 135.44L212.525 138.238C212.525 138.238 213.138 141.143 216.207 141.83C219.275 142.498 221.711 138.508 221.711 138.508V135.91C221.711 135.91 227.541 135.08 230.031 129.16C230.031 129.16 233.352 128.528 234.399 126.759C235.427 124.99 235.644 122.391 234.434 121.832Z" fill="#FFD2BB"/>
<path d="M93.6823 75.1788C95.216 75.1788 96.4614 73.9334 96.4614 72.3997C96.4614 70.8653 95.216 69.6378 93.6823 69.6378C92.1664 69.6378 90.921 70.8653 90.921 72.3997C90.9204 73.9334 92.1657 75.1788 93.6823 75.1788ZM88.629 74.6911C87.0952 74.6911 85.8677 75.9364 85.8677 77.4701C85.8677 78.9861 87.0952 80.2314 88.629 80.2314C90.1627 80.2314 91.3903 78.9861 91.3903 77.4701C91.3896 75.937 90.1627 74.6911 88.629 74.6911ZM91.8773 277.635C90.3436 277.635 89.0982 278.88 89.0982 280.396C89.0982 281.93 90.3436 283.175 91.8773 283.175C93.4111 283.175 94.6386 281.93 94.6386 280.396C94.6386 278.88 93.4111 277.635 91.8773 277.635ZM83.5751 75.1788C85.091 75.1788 86.3363 73.9334 86.3363 72.3997C86.3363 70.8653 85.091 69.6378 83.5751 69.6378C82.0413 69.6378 80.796 70.8653 80.796 72.3997C80.796 73.9334 82.0413 75.1788 83.5751 75.1788ZM88.629 70.107C90.1627 70.107 91.3903 68.8617 91.3903 67.3457C91.3903 65.812 90.1627 64.5667 88.629 64.5667C87.0952 64.5667 85.8677 65.812 85.8677 67.3457C85.8671 68.8617 87.0946 70.107 88.629 70.107ZM241.148 117.662C237.448 119.34 235.372 119.792 234.65 120.586C234.338 120.921 234.024 121.231 233.721 121.617C233.953 121.653 234.203 121.708 234.434 121.832C235.644 122.391 235.427 124.99 234.399 126.759C233.352 128.528 230.031 129.16 230.031 129.16C227.541 135.08 221.711 135.91 221.711 135.91V138.506C221.723 138.499 222.107 138.304 224.201 139.121C226.33 139.951 228.929 137.207 232.521 137.352C236.112 137.514 238.386 137.984 241.509 143.686C244.631 149.408 249.504 156.266 250.027 157.619C250.122 157.865 249.802 158.405 249.221 159.119C249.721 159.844 250.938 161.448 252.211 161.933C253.871 162.547 259.574 149.191 260.205 146.087C260.837 142.965 262.912 142.441 265.403 143.596C266.543 144.117 268.925 144.351 271.392 144.345C259.784 134.405 251.117 124.092 245.492 113.282C244.311 115.343 242.697 116.964 241.148 117.662ZM289.804 96.8174C288.288 96.8174 287.042 98.0628 287.042 99.5965C287.042 101.13 288.288 102.358 289.804 102.358C291.337 102.358 292.583 101.13 292.583 99.5965C292.583 98.0628 291.338 96.8174 289.804 96.8174ZM289.804 92.2334C291.337 92.2334 292.583 91.0059 292.583 89.4721C292.583 87.9384 291.337 86.693 289.804 86.693C288.288 86.693 287.042 87.9384 287.042 89.4721C287.042 91.0059 288.288 92.2334 289.804 92.2334ZM284.75 97.3045C286.284 97.3045 287.512 96.0598 287.512 94.5254C287.512 93.0095 286.284 91.7641 284.75 91.7641C283.217 91.7641 281.989 93.0095 281.989 94.5254C281.989 96.0598 283.217 97.3045 284.75 97.3045ZM294.875 97.3045C296.409 97.3045 297.637 96.0598 297.637 94.5254C297.637 93.0095 296.409 91.7641 294.875 91.7641C293.342 91.7641 292.096 93.0095 292.096 94.5254C292.096 96.0598 293.341 97.3045 294.875 97.3045ZM96.9306 278.105C98.4643 278.105 99.7097 276.877 99.7097 275.344C99.7097 273.809 98.4643 272.582 96.9306 272.582C95.4147 272.582 94.1693 273.809 94.1693 275.344C94.1693 276.877 95.4147 278.105 96.9306 278.105ZM207.327 123.907C207.273 125.405 207.219 126.09 207.219 126.09C207.219 126.09 207.165 122.138 205.775 121.145C205.738 121.12 205.713 121.106 205.678 121.082C205.711 121.105 205.739 121.122 205.775 121.145C207.165 122.138 207.219 126.09 207.219 126.09C207.219 126.09 207.273 125.405 207.327 123.907ZM213.434 140.083C212.718 139.156 212.525 138.238 212.525 138.238L212.723 135.44C207.688 133.148 208.103 129.25 207.165 128.167C206.259 127.084 204.673 127.673 203.591 126.059V133.417C204.909 133.598 208.716 134.447 212.523 138.236C212.523 138.236 212.718 139.156 213.434 140.083ZM131.293 165.704H123.262V173.194H131.293V165.704ZM150.586 121.958V128.924H154.646V127.806H151.885V121.958H150.586ZM131.293 149.715H123.262V157.186H131.293V149.715ZM198.087 133.887L120.772 133.851V134.681L198.087 134.717V133.887ZM123.262 206.221H131.293V198.75H123.262V206.221ZM131.293 181.496H123.262V188.986H131.293V181.496ZM167.407 128.924V123.095H169.41V121.958H164.122V123.095H166.107V128.924H167.407ZM161.288 123.04C162.082 123.04 162.804 123.167 163.508 123.419V122.264C162.804 122.03 162.082 121.922 161.288 121.922C159.267 121.922 158.256 122.626 158.255 124.051C158.255 125.35 158.959 126 160.385 126H161.486C162.136 126 162.46 126.271 162.46 126.794C162.46 127.498 161.919 127.859 160.854 127.859C159.988 127.859 159.194 127.733 158.49 127.462V128.635C159.194 128.87 159.988 128.978 160.854 128.978C162.785 128.978 163.76 128.256 163.76 126.794C163.76 125.495 163.002 124.845 161.486 124.845H160.385C159.826 124.845 159.537 124.574 159.537 124.051C159.537 123.383 160.133 123.04 161.288 123.04ZM155.856 121.958V128.924H157.155V121.958H155.856ZM236.979 268.972C225.54 269.156 214.539 269.053 203.97 268.606L217.272 268.196C217.272 268.196 217.687 267.709 217.849 266.807C218.029 265.904 217.849 262.674 217.506 262.512C217.163 262.367 216.586 262.367 216.586 262.367L210.847 262.674C210.847 262.674 208.591 264.93 207.382 264.623C206.19 264.316 204.205 264.388 202.798 265.634C201.602 266.705 202.342 268.161 202.572 268.547C142.417 265.822 96.4588 251.729 64.9504 214.956C27.4655 171.191 49.3754 136.45 64.5353 122.698C79.6232 108.982 112.325 110.227 121.872 85.3038C131.438 60.3621 132.827 51.4282 150.965 38.47C170.167 24.7719 244.469 34.6079 238.657 71.1722C237.196 80.3358 237.512 89.134 239.564 97.6196C237.107 96.8747 234.482 96.7442 232.359 97.0517C227.63 97.7196 222.596 104.848 217.813 104.885C213.049 104.939 209.511 107.429 206.75 110.714C204.007 113.98 204.368 120.586 204.368 120.586C204.368 120.586 204.378 120.404 204.818 120.586C204.68 120.585 204.541 120.569 204.368 120.586C204.059 120.592 203.804 120.709 203.591 120.894V114.613H116.729V243.021H203.591V218.043L210.034 258.595L211.099 258.418L211.839 262.62L216.586 262.367H216.603L216.801 257.467L217.505 257.35L220.411 217.032L225.41 256.52L233.929 256.718L241.509 199.074C241.509 199.074 227.594 204.182 203.591 201.385C227.594 204.183 241.508 199.074 241.508 199.074L238.602 169.151C238.602 169.151 241.4 173.195 243.169 174.657C244.937 176.101 249.503 178.555 253.455 176.064C257.407 173.556 264.248 148.362 264.572 148.163C264.879 147.947 265.926 147.532 269.77 147.441C271.373 147.396 272.901 147.099 274.231 146.723C282.587 153.56 292.346 160.223 303.483 166.752C351.689 194.996 292.8 268.07 236.979 268.972ZM167.766 85.9895L167.279 94.6521C167.279 94.6521 169.373 91.9265 176.43 83.8955C183.504 75.8645 181.736 64.7831 174.986 67.2018C168.236 69.6021 167.766 85.9895 167.766 85.9895ZM145.352 86.9452C148.853 90.5545 150.532 90.6812 149.449 92.2512C148.366 93.8034 147.283 92.3594 146.074 91.4032C144.882 90.4469 142.464 91.7641 143.782 93.8034C145.117 95.8605 147.879 96.3482 149.81 95.6262C151.741 94.9042 152.228 94.1829 155.224 96.3482C157.122 97.712 158.539 99.5965 159.329 100.806H152.824L158.003 114.522H166.431L171.376 100.806H165.658C166.159 96.4991 167.767 82.0319 167.767 73.6985C167.767 63.8268 161.017 53.7024 153.544 62.3829C149.863 66.66 151.812 76.4419 154.718 85.2484C152.805 82.6501 150.098 79.6902 147.355 78.9141C142.229 77.4702 141.868 83.3358 145.352 86.9452ZM240.786 265.634C239.379 264.388 237.394 264.316 236.203 264.623C234.994 264.93 232.737 262.674 232.737 262.674L226.998 262.367L231.762 262.62L232.791 256.7L226.745 256.555L226.98 262.367H226.998C226.998 262.367 226.421 262.367 226.078 262.512C225.734 262.674 225.554 265.904 225.734 266.807C225.897 267.709 226.312 268.197 226.312 268.197L240.948 268.648C240.948 268.648 242.176 266.88 240.786 265.634ZM102.002 277.635C100.468 277.635 99.2226 278.88 99.2226 280.396C99.2226 281.93 100.468 283.175 102.002 283.175C103.535 283.175 104.763 281.93 104.763 280.396C104.763 278.88 103.536 277.635 102.002 277.635ZM96.9306 282.689C95.4147 282.689 94.1693 283.934 94.1693 285.468C94.1693 287.002 95.4147 288.229 96.9306 288.229C98.4643 288.229 99.7097 287.002 99.7097 285.468C99.7097 283.934 98.4643 282.689 96.9306 282.689Z" fill="#CCC1FF"/>
<path d="M116.729 114.612V243.021H203.591V114.612H116.729ZM164.122 121.958H169.41V123.095H167.407V128.924H166.107V123.095H164.122L164.122 121.958ZM161.288 121.922C162.082 121.922 162.804 122.03 163.508 122.264V123.419C162.804 123.167 162.082 123.04 161.288 123.04C160.133 123.04 159.537 123.383 159.537 124.051C159.537 124.574 159.826 124.844 160.385 124.844H161.486C163.002 124.844 163.76 125.495 163.76 126.794C163.76 128.256 162.785 128.978 160.854 128.978C159.988 128.978 159.194 128.87 158.49 128.635V127.462C159.194 127.733 159.988 127.859 160.854 127.859C161.919 127.859 162.46 127.498 162.46 126.794C162.46 126.271 162.136 126 161.486 126H160.385C158.959 126 158.255 125.35 158.255 124.051C158.256 122.626 159.267 121.922 161.288 121.922ZM155.856 121.958H157.155V128.924H155.856V121.958ZM150.586 121.958H151.885V127.806H154.647V128.924H150.586V121.958ZM131.293 206.221H123.262V198.75H131.293V206.221ZM131.293 188.986H123.262V181.496H131.293V188.986ZM131.293 173.194H123.262V165.704H131.293V173.194ZM131.293 157.186H123.262V149.715H131.293V157.186ZM198.087 134.717L120.772 134.681V133.851L198.087 133.887V134.717Z" fill="white"/>
<path d="M203.591 201.385V218.043L210.034 258.595L217.505 257.35L220.411 217.032L225.41 256.52L233.929 256.718L241.509 199.074C241.509 199.074 227.594 204.182 203.591 201.385ZM268.526 134.915H273.182V139.229H268.526V134.915ZM272.911 114.071C270.691 114.071 268.345 114.36 265.873 114.956V118.655C268.345 118.059 270.692 117.771 272.911 117.771C276.088 117.771 277.676 118.818 277.676 120.929C277.676 123.636 276.178 124.99 273.182 124.99H268.526V132.714H273.182V128.672C279.048 128.672 281.989 126.09 281.989 120.929C281.989 116.363 278.957 114.071 272.911 114.071Z" fill="#5254BD"/>
<path d="M217.506 262.512C217.849 262.674 218.029 265.904 217.849 266.807C217.687 267.709 217.272 268.196 217.272 268.196L202.635 268.648C202.635 268.648 201.408 266.879 202.798 265.634C204.205 264.388 206.19 264.316 207.382 264.623C208.591 264.93 210.847 262.674 210.847 262.674L216.586 262.367C216.586 262.367 217.163 262.367 217.506 262.512ZM236.203 264.623C234.994 264.93 232.737 262.674 232.737 262.674L226.998 262.367C226.998 262.367 226.421 262.367 226.078 262.512C225.734 262.675 225.554 265.904 225.734 266.807C225.897 267.709 226.312 268.197 226.312 268.197L240.948 268.648C240.948 268.648 242.176 266.88 240.786 265.634C239.379 264.388 237.394 264.316 236.203 264.623ZM205.775 121.145C207.164 122.138 207.219 126.091 207.219 126.091C207.219 126.091 207.273 125.405 207.327 123.907C207.381 122.391 208.374 119.702 210.178 118.077C212.001 116.472 216.207 115.804 222.811 118.871C229.398 121.922 229.344 119.648 230.283 121.2C231.221 122.751 230.499 127.228 230.499 127.228C230.499 127.228 232.051 125.622 232.629 123.798C233.189 121.976 233.928 121.362 234.65 120.586C235.372 119.792 237.448 119.34 241.148 117.662C244.83 116.002 248.89 109.143 246.598 103.495C244.306 97.8279 237.087 96.3661 232.359 97.0518C227.63 97.7196 222.596 104.848 217.813 104.885C213.049 104.939 209.511 107.429 206.75 110.714C204.007 113.98 204.368 120.586 204.368 120.586C204.368 120.586 204.367 120.171 205.775 121.145ZM250.027 157.619C249.504 156.266 244.631 149.408 241.509 143.686C238.386 137.984 236.112 137.514 232.521 137.352C228.929 137.207 226.33 139.951 224.201 139.121C222.071 138.29 221.71 138.506 221.71 138.506C221.71 138.506 219.273 142.496 216.205 141.828C213.137 141.142 212.523 138.236 212.523 138.236C208.715 134.446 204.907 133.598 203.59 133.417V201.384C227.593 204.182 241.508 199.074 241.508 199.074L238.602 169.151C238.602 169.151 250.551 158.973 250.027 157.619ZM158.003 114.522H166.431L171.376 100.806H152.824L158.003 114.522Z" fill="#553C8B"/>
</svg>
