<svg width="147" height="120" viewBox="0 0 147 120" fill="none" xmlns="http://www.w3.org/2000/svg">
<g clip-path="url(#clip0_162_135)">
<path opacity="0.18" d="M31.8897 25.6377C23.2124 30.2729 14.2717 35.1272 8.22342 42.89C4.59126 47.5573 2.17115 53.1131 0.896783 58.894C-1.28613 68.7614 0.329949 80.2006 7.8395 86.9865C10.4526 89.3584 13.6485 91.0327 16.945 92.3192C23.7782 94.9808 31.123 96.0697 38.4345 95.5051C44.4385 95.0367 50.4325 93.4548 56.4063 94.2086C63.6928 95.1252 70.0546 99.3865 76.8425 102.193C85.2771 105.665 94.4613 106.918 103.518 105.831C105.801 105.553 108.113 105.109 110.121 103.988C112.505 102.655 114.272 100.478 116.151 98.488C120.389 93.9844 125.387 90.2631 130.917 87.495C133.817 86.0438 136.891 84.8398 139.409 82.7976C146.043 77.4307 147.178 67.8267 146.792 59.3101C146.406 50.7935 144.487 41.3925 137.671 36.2207C136.149 35.0669 134.436 34.1724 132.961 32.9563C128.041 28.9001 126.569 22.1101 123.417 16.5604C116.35 4.15031 100.581 -1.28286 86.3842 0.252818C66.0405 2.45382 49.3792 16.297 31.8897 25.6377Z" fill="#2528C9"/>
<path d="M138.477 59.397C138.292 61.1055 136.183 63.9739 133.266 67.198C128.487 72.4724 121.542 78.6935 117.365 82.3176C115.21 84.1889 113.793 85.3688 113.793 85.3688V52.8985C113.793 52.8985 118.85 46.4221 122.525 46.006C126.199 45.59 133.614 49.8874 133.614 49.8874C133.614 49.8874 139.096 53.4553 138.477 59.397Z" fill="#5254BD"/>
<path d="M133.266 67.198C128.486 72.4723 121.542 78.6934 117.365 82.3176C117.053 81.8211 116.991 81.1457 116.963 80.5346C116.852 77.4814 116.878 74.4241 116.907 71.3688C116.933 68.402 116.959 65.4372 117.146 62.4764C117.323 59.7186 117.66 56.8985 118.923 54.4362C119.208 54.6908 119.443 54.9961 119.616 55.3367C121.206 58.0683 122.211 61.0814 123.216 64.0723C123.713 65.5464 124.21 67.0264 124.708 68.5125C125.822 67.9004 126.818 67.0937 127.648 66.1306C128.412 65.2844 129.094 64.3698 129.795 63.4733C130.285 62.8462 131.242 61.0613 132.006 61.7326C133.244 62.812 133.345 65.2824 133.266 67.198Z" fill="url(#paint0_linear_162_135)"/>
<path d="M117.506 10.1467H35.1759V105.497H117.506V10.1467Z" fill="#687CFD"/>
<path d="M117.506 10.1467H35.1759V105.497H117.506V10.1467Z" fill="url(#paint1_linear_162_135)"/>
<path d="M106.191 14.7558L35.1759 21.1216C35.4955 21.1216 35.1759 12.2774 35.1759 10.1467H110.05V10.8945C110.05 11.9182 109.644 12.9 108.92 13.6241C108.196 14.3482 107.215 14.7552 106.191 14.7558Z" fill="url(#paint2_linear_162_135)"/>
<path d="M117.506 21.1216H35.1759V116.472H117.506V21.1216Z" fill="#CCC1FF"/>
<path d="M46.8804 21.1216H35.1759V116.472H46.8804V21.1216Z" fill="url(#paint3_linear_162_135)"/>
<path d="M53.992 38.9427H39.7709V53.1639H53.992V38.9427Z" fill="#F3F3FF"/>
<path d="M69.003 38.9427H54.7819V53.1639H69.003V38.9427Z" fill="#F3F3FF"/>
<path d="M84.0162 38.9427H69.795V53.1639H84.0162V38.9427Z" fill="#F3F3FF"/>
<path d="M99.0271 38.9427H84.806V53.1639H99.0271V38.9427Z" fill="#F3F3FF"/>
<path d="M53.992 53.7889H39.7709V68.01H53.992V53.7889Z" fill="#F3F3FF"/>
<path d="M69.003 53.7889H54.7819V68.01H69.003V53.7889Z" fill="#F3F3FF"/>
<path d="M84.0162 53.7889H69.795V68.01H84.0162V53.7889Z" fill="#F3F3FF"/>
<path d="M99.0271 53.7889H84.806V68.01H99.0271V53.7889Z" fill="#F3F3FF"/>
<path d="M53.992 68.6352H39.7709V82.8563H53.992V68.6352Z" fill="#F3F3FF"/>
<path d="M69.003 68.6352H54.7819V82.8563H69.003V68.6352Z" fill="#F3F3FF"/>
<path d="M84.0162 68.6352H69.795V82.8563H84.0162V68.6352Z" fill="#F3F3FF"/>
<path d="M99.0271 68.6352H84.806V82.8563H99.0271V68.6352Z" fill="#F3F3FF"/>
<path d="M53.992 83.4814H39.7709V97.7026H53.992V83.4814Z" fill="#F3F3FF"/>
<path d="M69.003 83.4814H54.7819V97.7026H69.003V83.4814Z" fill="#F3F3FF"/>
<path d="M84.0162 83.4814H69.795V97.7026H84.0162V83.4814Z" fill="#F3F3FF"/>
<path d="M99.0271 83.4814H84.806V97.7026H99.0271V83.4814Z" fill="#F3F3FF"/>
<path d="M53.992 98.3277H39.7709V112.549H53.992V98.3277Z" fill="#F3F3FF"/>
<path d="M69.003 98.3277H54.7819V112.549H69.003V98.3277Z" fill="#F3F3FF"/>
<path d="M84.0162 98.3277H69.795V112.549H84.0162V98.3277Z" fill="#F3F3FF"/>
<path d="M113.787 38.9427H99.5658V53.1639H113.787V38.9427Z" fill="#F3F3FF"/>
<path d="M113.787 24.0965H99.5658V38.3176H113.787V24.0965Z" fill="#F3F3FF"/>
<path d="M99.0271 24.0965H84.806V38.3176H99.0271V24.0965Z" fill="#F3F3FF"/>
<path d="M113.787 53.7889H99.5658V68.01H113.787V53.7889Z" fill="#F3F3FF"/>
<path d="M113.787 68.6352H99.5658V82.8563H113.787V68.6352Z" fill="#F3F3FF"/>
<path d="M113.787 83.4814H99.5658V97.7026H113.787V83.4814Z" fill="#F3F3FF"/>
<path d="M41.5538 6.29149V14.002C41.5538 14.4181 42.0825 14.7558 42.7317 14.7558C43.383 14.7558 43.9096 14.4181 43.9096 14.002V6.29149C43.9096 5.87541 43.383 5.53772 42.7317 5.53772C42.0825 5.53772 41.5538 5.87541 41.5538 6.29149ZM52.8141 6.29149V14.002C52.8141 14.4181 53.3408 14.7558 53.992 14.7558C54.6433 14.7558 55.1699 14.4181 55.1699 14.002V6.29149C55.1699 5.87541 54.6433 5.53772 53.992 5.53772C53.3408 5.53772 52.8141 5.87541 52.8141 6.29149ZM64.0744 6.29149V14.002C64.0744 14.4181 64.6011 14.7558 65.2523 14.7558C65.9036 14.7558 66.4302 14.4181 66.4302 14.002V6.29149C66.4302 5.87541 65.9036 5.53772 65.2523 5.53772C64.6011 5.53772 64.0744 5.87541 64.0744 6.29149ZM75.3347 6.29149V14.002C75.3347 14.4181 75.8614 14.7558 76.5126 14.7558C77.1619 14.7558 77.6905 14.4181 77.6905 14.002V6.29149C77.6905 5.87541 77.1619 5.53772 76.5126 5.53772C75.8614 5.53772 75.3347 5.87541 75.3347 6.29149ZM86.593 6.29149V14.002C86.593 14.4181 87.1217 14.7558 87.7729 14.7558C88.4222 14.7558 88.9508 14.4181 88.9508 14.002V6.29149C88.9508 5.87541 88.4222 5.53772 87.7729 5.53772C87.1217 5.53772 86.593 5.87541 86.593 6.29149ZM97.8533 6.29149V14.002C97.8533 14.4181 98.382 14.7558 99.0312 14.7558C99.6825 14.7558 100.211 14.4181 100.211 14.002V6.29149C100.211 5.87541 99.6825 5.53772 99.0312 5.53772C98.382 5.53772 97.8533 5.87541 97.8533 6.29149ZM108.872 6.29149V14.002C108.872 14.4181 109.401 14.7558 110.05 14.7558C110.702 14.7558 111.228 14.4181 111.228 14.002V6.29149C111.228 5.87541 110.702 5.53772 110.05 5.53772C109.401 5.53772 108.872 5.87541 108.872 6.29149Z" fill="#CCC1FF"/>
<path d="M119.381 10.1467H117.508V116.472H119.381V10.1467Z" fill="url(#paint4_linear_162_135)"/>
<path d="M88.0903 26.1809C88.0907 26.4049 88.0247 26.624 87.9005 26.8104C87.7763 26.9968 87.5996 27.1422 87.3927 27.2281C87.1858 27.314 86.9581 27.3365 86.7384 27.2929C86.5187 27.2493 86.3169 27.1415 86.1585 26.9831C86.0001 26.8247 85.8923 26.6229 85.8487 26.4032C85.8051 26.1835 85.8277 25.9558 85.9136 25.7489C85.9995 25.5421 86.1448 25.3653 86.3312 25.2412C86.5176 25.117 86.7367 25.0509 86.9607 25.0513C87.2601 25.0518 87.5472 25.171 87.7589 25.3827C87.9706 25.5945 88.0898 25.8815 88.0903 26.1809Z" fill="url(#paint5_linear_162_135)"/>
<path d="M88.0903 41.0291C88.0907 41.2531 88.0247 41.4722 87.9005 41.6586C87.7763 41.845 87.5996 41.9904 87.3927 42.0763C87.1858 42.1622 86.9581 42.1847 86.7384 42.1411C86.5187 42.0975 86.3169 41.9897 86.1585 41.8313C86.0001 41.673 85.8923 41.4711 85.8487 41.2514C85.8051 41.0317 85.8277 40.804 85.9136 40.5971C85.9995 40.3903 86.1448 40.2136 86.3312 40.0894C86.5176 39.9652 86.7367 39.8991 86.9607 39.8995C87.2601 39.9 87.5472 40.0192 87.7589 40.2309C87.9706 40.4427 88.0898 40.7297 88.0903 41.0291Z" fill="url(#paint6_linear_162_135)"/>
<path d="M90.8543 41.0291C90.8547 41.2531 90.7886 41.4722 90.6644 41.6586C90.5402 41.845 90.3635 41.9904 90.1566 42.0763C89.9497 42.1622 89.722 42.1847 89.5023 42.1411C89.2826 42.0975 89.0808 41.9897 88.9224 41.8313C88.764 41.673 88.6562 41.4711 88.6126 41.2514C88.569 41.0317 88.5916 40.804 88.6775 40.5971C88.7634 40.3903 88.9087 40.2136 89.0951 40.0894C89.2815 39.9652 89.5006 39.8991 89.7246 39.8995C90.0241 39.9 90.3111 40.0192 90.5228 40.2309C90.7345 40.4427 90.8537 40.7297 90.8543 41.0291Z" fill="url(#paint7_linear_162_135)"/>
<path d="M93.6343 41.0291C93.6347 41.2531 93.5686 41.4722 93.4444 41.6586C93.3202 41.845 93.1435 41.9904 92.9366 42.0763C92.7298 42.1622 92.5021 42.1847 92.2823 42.1411C92.0626 42.0975 91.8608 41.9897 91.7024 41.8313C91.544 41.673 91.4362 41.4711 91.3926 41.2514C91.349 41.0317 91.3716 40.804 91.4575 40.5971C91.5434 40.3903 91.6888 40.2136 91.8752 40.0894C92.0616 39.9652 92.2806 39.8991 92.5046 39.8995C92.8041 39.9 93.0911 40.0192 93.3028 40.2309C93.5146 40.4427 93.6338 40.7297 93.6343 41.0291Z" fill="url(#paint8_linear_162_135)"/>
<path d="M88.0903 70.9347C88.0903 71.1586 88.0239 71.3775 87.8995 71.5636C87.775 71.7498 87.5982 71.8948 87.3913 71.9804C87.1844 72.066 86.9567 72.0883 86.7372 72.0445C86.5176 72.0006 86.316 71.8927 86.1578 71.7342C85.9996 71.5757 85.892 71.3739 85.8485 71.1542C85.8051 70.9346 85.8278 70.707 85.9138 70.5002C85.9997 70.2935 86.1451 70.1169 86.3314 69.9928C86.5178 69.8687 86.7368 69.8026 86.9607 69.803C87.1092 69.803 87.2563 69.8323 87.3935 69.8892C87.5306 69.9461 87.6553 70.0295 87.7602 70.1346C87.8651 70.2397 87.9483 70.3645 88.0049 70.5018C88.0616 70.6391 88.0906 70.7862 88.0903 70.9347Z" fill="url(#paint9_linear_162_135)"/>
<path d="M42.1588 72.0643C42.7827 72.0643 43.2885 71.5585 43.2885 70.9346C43.2885 70.3108 42.7827 69.805 42.1588 69.805C41.5349 69.805 41.0292 70.3108 41.0292 70.9346C41.0292 71.5585 41.5349 72.0643 42.1588 72.0643Z" fill="#687CFD"/>
<path d="M90.8543 70.9347C90.8543 71.1586 90.7878 71.3775 90.6634 71.5636C90.539 71.7498 90.3621 71.8948 90.1552 71.9804C89.9483 72.066 89.7207 72.0883 89.5011 72.0445C89.2815 72.0006 89.0799 71.8927 88.9217 71.7342C88.7635 71.5757 88.6559 71.3739 88.6124 71.1542C88.569 70.9346 88.5917 70.707 88.6777 70.5002C88.7636 70.2935 88.909 70.1169 89.0953 69.9928C89.2817 69.8687 89.5007 69.8026 89.7246 69.803C89.8731 69.803 90.0202 69.8323 90.1574 69.8892C90.2946 69.9461 90.4192 70.0295 90.5241 70.1346C90.629 70.2397 90.7122 70.3645 90.7688 70.5018C90.8255 70.6391 90.8545 70.7862 90.8543 70.9347Z" fill="url(#paint10_linear_162_135)"/>
<path d="M93.6343 70.9347C93.6343 71.1586 93.5679 71.3775 93.4434 71.5636C93.319 71.7498 93.1421 71.8948 92.9352 71.9804C92.7283 72.066 92.5007 72.0883 92.2811 72.0445C92.0615 72.0006 91.8599 71.8927 91.7017 71.7342C91.5435 71.5757 91.4359 71.3739 91.3925 71.1542C91.349 70.9346 91.3717 70.707 91.4577 70.5002C91.5437 70.2935 91.689 70.1169 91.8754 69.9928C92.0617 69.8687 92.2807 69.8026 92.5046 69.803C92.6532 69.803 92.8002 69.8323 92.9374 69.8892C93.0746 69.9461 93.1992 70.0295 93.3041 70.1346C93.4091 70.2397 93.4922 70.3645 93.5489 70.5018C93.6055 70.6391 93.6345 70.7862 93.6343 70.9347Z" fill="url(#paint11_linear_162_135)"/>
<path d="M138.342 40.5427C138.026 41.8331 138.448 43.6221 137.849 44.806C136.844 46.796 133.906 48.1166 133.471 50.3015C133.445 50.4281 130.175 52.004 128.489 51.4653C127.606 51.1859 127.158 50.3256 127.837 48.3799C128.05 47.7769 129.244 47.5517 129.566 46.9909L129.5 46.9407C127.867 45.7085 127.691 43.0975 128.028 41.3548C128.366 39.612 129.14 37.9377 129.97 36.3457C130.609 35.1196 132.052 34.4543 133.435 34.4764C135.174 34.5065 137.009 35.202 137.914 36.6874C138.605 37.8191 138.655 39.2522 138.342 40.5427Z" fill="url(#paint12_linear_162_135)"/>
<path d="M130.309 31.1558C129.419 31.6261 128.472 32.1809 127.475 32.0302C127.45 32.2696 127.489 32.5114 127.589 32.7305C127.689 32.9497 127.845 33.1382 128.042 33.2764L127.423 33.4151C127.398 33.4166 127.373 33.4239 127.35 33.4365C127.328 33.449 127.309 33.4664 127.294 33.4874C127.287 33.5099 127.284 33.5337 127.287 33.5573C127.289 33.5809 127.296 33.6037 127.308 33.6241C127.461 33.9794 127.711 34.2841 128.03 34.5025C127.92 34.7397 127.52 34.6874 127.383 34.9045C127.353 34.969 127.337 35.0393 127.337 35.1106C127.337 35.1818 127.353 35.2521 127.383 35.3166C127.521 35.6916 127.757 36.0227 128.066 36.2754C127.696 36.6774 127.928 37.4211 128.438 37.604C128.949 37.7869 129.562 37.4392 129.737 36.9226C129.759 37.1551 129.706 37.3887 129.584 37.5879C131.27 37.8533 133.073 38.1025 134.625 37.3869C134.553 37.5477 134.513 37.7212 134.508 37.8975C134.883 38.0148 135.28 38.0396 135.666 37.9699C135.747 38.7978 135.672 39.6334 135.447 40.4342C135.308 40.9327 135.109 41.4151 135.021 41.9236C134.909 42.4357 135.001 42.9712 135.276 43.4171C135.544 43.393 135.733 43.1417 135.835 42.8945C135.909 42.6368 136.021 42.3915 136.167 42.1668C136.569 41.6965 137.405 41.8694 137.729 42.39C138.052 42.9106 137.93 43.6101 137.62 44.1347C137.429 44.4441 137.176 44.7108 136.877 44.9183C136.578 45.1258 136.24 45.2696 135.883 45.3407C135.942 45.9015 136.002 46.4623 136.06 47.0211C137.12 46.0161 138.305 45.1538 139.258 44.0543C140.211 42.9548 140.933 41.5477 140.81 40.0965C140.736 39.202 140.346 38.3518 140.316 37.4533C140.301 37.0513 140.362 36.6392 140.346 36.2332C140.308 35.5863 140.081 34.9647 139.694 34.4455C139.306 33.9263 138.774 33.5323 138.165 33.3126C137.652 33.1377 137.087 33.0874 136.633 32.792C136.068 32.4261 135.775 31.7447 135.214 31.3709C134.611 30.9689 133.674 30.804 132.973 30.605C132.06 30.3518 131.111 30.7357 130.309 31.1558Z" fill="#453D56"/>
<path d="M117.664 50.1749C117.593 50.2189 117.531 50.2773 117.483 50.3466C117.435 50.4158 117.403 50.4943 117.387 50.5769C117.395 50.6635 117.431 50.7452 117.489 50.8098C117.547 50.8743 117.625 50.9181 117.711 50.9347C117.882 50.9648 118.059 50.9566 118.227 50.9106L119.248 50.7096C118.697 51.0172 118.239 51.4687 117.924 52.0161C117.886 52.0792 117.868 52.1517 117.872 52.2248C117.875 52.298 117.899 52.3686 117.942 52.4282C118.078 52.601 118.31 52.5327 118.495 52.4603L119.381 52.1066L118.778 52.6915C118.59 52.8585 118.427 53.0506 118.291 53.2623C118.233 53.362 118.19 53.4697 118.163 53.5819C118.152 53.6295 118.154 53.679 118.168 53.7256C118.182 53.7722 118.209 53.8142 118.244 53.8475C118.28 53.8809 118.323 53.9043 118.371 53.9155C118.418 53.9268 118.468 53.9254 118.515 53.9116C118.883 53.8079 119.226 53.627 119.52 53.3809C119.302 53.6865 119.059 53.9735 118.794 54.2392C118.529 54.5068 118.379 54.8675 118.376 55.2443C118.377 55.2848 118.39 55.324 118.414 55.3568C118.444 55.3863 118.483 55.4047 118.525 55.4091C118.852 55.4634 119.15 55.2242 119.397 55.0071L120.308 54.1809C120.454 54.0608 120.584 53.9208 120.691 53.7649C120.752 53.6751 120.787 53.5698 120.79 53.4613C120.784 53.3925 120.76 53.3263 120.721 53.2693C120.682 53.2123 120.629 53.1663 120.567 53.1357C120.505 53.1052 120.436 53.0912 120.367 53.0951C120.298 53.099 120.231 53.1206 120.173 53.1578C120.199 52.9829 120.267 52.8201 120.31 52.6493C120.362 52.4809 120.35 52.2992 120.277 52.1387C120.238 52.0603 120.171 51.9996 120.089 51.9686C120.007 51.9377 119.916 51.9389 119.835 51.9719C119.942 51.7628 120.01 51.536 120.036 51.3025C120.047 51.1846 120.025 51.0659 119.973 50.9596C119.921 50.8532 119.841 50.7632 119.741 50.6995C119.686 50.678 119.635 50.6459 119.592 50.6051C119.512 50.5066 119.576 50.3659 119.61 50.2433C119.644 50.1507 119.653 50.0511 119.638 49.9538C119.623 49.8565 119.584 49.7646 119.523 49.6866C119.463 49.6087 119.384 49.5471 119.294 49.5077C119.204 49.4684 119.105 49.4524 119.007 49.4613C118.48 49.5237 118.048 49.8493 117.664 50.1749Z" fill="url(#paint13_linear_162_135)"/>
<path d="M134.157 57.7266C136.468 55.6844 139.331 57.2322 138.326 60.1487C136.153 66.4583 131.604 80.9146 127.284 80.9146C121.656 80.9146 119.381 70.9347 119.381 70.9347L121.98 65.6744C121.98 65.6744 125.656 73.7407 127.507 71.5578C129.359 69.3749 130.452 61.1055 134.05 57.8211L134.157 57.7266Z" fill="#5254BD"/>
<path d="M121.128 65.3266C121.093 64.8584 121.085 64.3887 121.104 63.9196C121.091 61.8722 120.487 59.872 119.363 58.1608C119.244 58.3306 119.194 58.5384 119.22 58.7437L119.25 64.0824C119.268 64.5251 119.239 64.9686 119.162 65.405C119.093 65.7226 118.977 66.0261 118.886 66.3397C118.696 66.9915 118.628 67.673 118.685 68.3497C118.703 68.7132 118.801 69.0682 118.973 69.3889C119.061 69.5481 119.186 69.6843 119.337 69.7863C119.488 69.8882 119.661 69.9532 119.841 69.9758C119.96 69.9758 120.444 68.9708 120.515 68.8341C120.729 68.4321 120.93 68.0268 121.118 67.6181C121.256 67.3085 121.552 66.8522 121.499 66.5045C121.441 66.1145 121.176 65.7547 121.128 65.3266Z" fill="url(#paint14_linear_162_135)"/>
<path d="M131.869 48.3538C131.383 48.9005 130.901 49.4493 130.414 49.998C130.042 50.4655 129.6 50.8724 129.104 51.2041C128.911 51.3182 128.704 51.4073 128.489 51.4694C127.606 51.19 127.158 50.3297 127.837 48.384C128.05 47.7809 129.244 47.5558 129.566 46.995L129.5 46.9448C129.731 47.054 129.974 47.1337 130.225 47.1819C130.748 47.2603 132.034 46.8543 132.193 47.6282C132.249 47.8955 132.06 48.1468 131.869 48.3538Z" fill="url(#paint15_linear_162_135)"/>
<path d="M73.4231 90.4523L75.4492 93.6C75.5022 93.6822 75.5736 93.751 75.6578 93.8007C75.742 93.8505 75.8366 93.88 75.9341 93.8868C76.0317 93.8937 76.1295 93.8776 76.2198 93.8401C76.3101 93.8025 76.3903 93.7444 76.4543 93.6704L82.0342 87.2382C82.1132 87.1475 82.1645 87.036 82.1819 86.9169C82.1993 86.7978 82.1821 86.6762 82.1323 86.5667C82.0825 86.4571 82.0023 86.3642 81.9011 86.299C81.7999 86.2338 81.6821 86.1991 81.5618 86.199H81.5156C81.4236 86.199 81.3327 86.2192 81.2494 86.2581C81.166 86.297 81.0922 86.3537 81.0332 86.4242L76.6673 91.6583C76.6048 91.7337 76.5253 91.7934 76.4355 91.8324C76.3457 91.8715 76.2479 91.8889 76.1501 91.8832C76.0523 91.8775 75.9572 91.8489 75.8724 91.7998C75.7877 91.7506 75.7157 91.6822 75.6623 91.6L74.4744 89.791C74.4084 89.6906 74.315 89.6113 74.2052 89.5625C74.0955 89.5137 73.974 89.4974 73.8553 89.5156C73.7551 89.5326 73.6606 89.5738 73.5799 89.6355C73.4992 89.6973 73.4348 89.7778 73.3923 89.87C73.3497 89.9623 73.3303 90.0635 73.3356 90.165C73.341 90.2664 73.371 90.3651 73.4231 90.4523ZM49.0271 106.37L51.5779 108.88C51.6676 108.969 51.729 109.082 51.7542 109.206C51.7794 109.329 51.7674 109.457 51.7195 109.574C51.6717 109.69 51.5902 109.79 51.4855 109.86C51.3809 109.93 51.2577 109.968 51.1316 109.968H51.0231C50.8545 109.968 50.6928 109.901 50.5728 109.783L48.0904 107.299C47.971 107.18 47.8095 107.113 47.6412 107.113C47.4728 107.113 47.3113 107.18 47.1919 107.299L44.7095 109.783C44.5904 109.901 44.4293 109.968 44.2613 109.968H44.1507C44.0247 109.968 43.9015 109.93 43.7968 109.86C43.6922 109.79 43.6107 109.69 43.5629 109.574C43.515 109.457 43.503 109.329 43.5282 109.206C43.5534 109.082 43.6148 108.969 43.7045 108.88L46.2573 106.37C46.3168 106.311 46.3641 106.241 46.3964 106.164C46.4287 106.086 46.4453 106.003 46.4453 105.92C46.4453 105.836 46.4287 105.753 46.3964 105.676C46.3641 105.598 46.3168 105.528 46.2573 105.469L43.6804 102.893C43.5919 102.804 43.5317 102.691 43.5073 102.568C43.483 102.445 43.4956 102.317 43.5435 102.201C43.5914 102.086 43.6726 101.987 43.7767 101.917C43.8808 101.847 44.0033 101.809 44.1286 101.809C44.2947 101.809 44.4544 101.874 44.5728 101.99L47.1859 104.567C47.3047 104.684 47.4646 104.749 47.6311 104.749C47.7977 104.749 47.9576 104.684 48.0764 104.567L50.6894 101.99C50.8079 101.874 50.9675 101.809 51.1337 101.809C51.2592 101.809 51.3819 101.846 51.4864 101.916C51.5908 101.986 51.6722 102.085 51.7204 102.201C51.7686 102.316 51.7813 102.444 51.757 102.567C51.7327 102.69 51.6725 102.804 51.5839 102.893L49.007 105.469C48.9488 105.53 48.903 105.601 48.8725 105.679C48.8419 105.757 48.8271 105.84 48.829 105.924C48.8309 106.008 48.8493 106.09 48.8834 106.167C48.9174 106.243 48.9662 106.312 49.0271 106.37Z" fill="#553C8B"/>
<path d="M26.2794 98.4764H26.9025L27.2141 112.559L26.9025 110.239H26.2794V98.4764Z" fill="#687CFD"/>
<path d="M27.5257 98.4764H26.9026V110.239H27.5257V98.4764Z" fill="#687CFD"/>
<path d="M21.8353 100.131C21.4836 101.218 22.5951 103.371 23.6725 104.484C24.7499 105.598 25.4816 105.343 26.5791 105.025C26.9308 103.938 27.2303 103.196 26.1509 102.082C25.0715 100.969 22.9328 99.813 21.8353 100.131Z" fill="#687CFD"/>
<path d="M32.0683 100.185C30.9809 99.8311 28.8281 100.945 27.7146 102.022C26.601 103.099 26.8563 103.831 27.1739 104.929C28.2613 105.28 29.003 105.58 30.1166 104.5C31.2302 103.421 32.3879 101.282 32.0683 100.185ZM26.9025 95.6362H24.1206C24.1206 97.612 25.3648 99.2141 26.9005 99.2141L27.5558 97.4593L26.9025 95.6362Z" fill="#553C8B"/>
<path d="M26.9024 95.6362H29.6823C29.6823 97.6121 28.4381 99.2141 26.9024 99.2141V95.6362ZM21.6361 91.6061C21.2844 92.6935 22.3959 94.8483 23.4753 95.9599C24.5547 97.0714 25.2844 96.8202 26.3798 96.5006C26.7316 95.4131 27.0311 94.6714 25.9517 93.5579C24.8723 92.4443 22.7336 91.2885 21.6361 91.6061Z" fill="#687CFD"/>
<path d="M31.8713 91.6583C30.7818 91.3065 28.6291 92.4181 27.5175 93.4975C26.406 94.5769 26.6572 95.3065 26.9748 96.402C28.0622 96.7537 28.806 97.0532 29.9175 95.9738C31.0291 94.8944 32.1889 92.7578 31.8713 91.6583Z" fill="#687CFD"/>
<path d="M26.8522 88.187C25.8231 88.6854 25.0432 90.9769 24.9788 92.5266C24.9145 94.0764 25.7145 95.8995 26.7035 96.4724C27.7326 95.9739 28.3698 94.205 28.4281 92.6533C28.4864 91.1015 27.8412 88.7598 26.8522 88.187Z" fill="#553C8B"/>
<path d="M21.405 108.444L22.3859 116.372H26.9226L28.7759 111.861L26.9226 108.223L21.405 108.444Z" fill="#687CFD"/>
<path d="M32.4421 108.444L31.4612 116.372H26.9225V108.223L32.4421 108.444Z" fill="#687CFD"/>
<path d="M28.9446 108.277L28.8943 108.301L27.3546 109.065L26.9345 109.278H20.8059C20.6209 109.278 20.4435 109.205 20.3127 109.074C20.1819 108.943 20.1084 108.766 20.1084 108.581V106.808C20.1084 106.623 20.1819 106.446 20.3127 106.315C20.4435 106.184 20.6209 106.111 20.8059 106.111H26.9345L28.9446 108.277Z" fill="#553C8B"/>
<path d="M33.0414 109.278H26.9228V106.111H33.0414C33.2264 106.111 33.4038 106.184 33.5346 106.315C33.6654 106.446 33.7389 106.623 33.7389 106.808V108.581C33.7389 108.766 33.6654 108.943 33.5346 109.074C33.4038 109.205 33.2264 109.278 33.0414 109.278Z" fill="#687CFD"/>
<path d="M21.8353 100.131C21.4836 101.218 22.5951 103.371 23.6725 104.484C24.7499 105.598 25.4816 105.343 26.5791 105.025C26.9308 103.938 27.2303 103.196 26.1509 102.082C25.0715 100.969 22.9328 99.813 21.8353 100.131Z" fill="url(#paint16_linear_162_135)"/>
<path d="M32.0684 100.185C30.981 99.8312 28.8282 100.945 27.7146 102.022C26.6011 103.099 26.8564 103.831 27.1739 104.929C28.2614 105.28 29.0031 105.58 30.1167 104.501C31.2302 103.421 32.388 101.282 32.0684 100.185Z" fill="url(#paint17_linear_162_135)"/>
<path d="M29.6443 96.2192C29.4292 97.9177 28.2835 99.2141 26.9026 99.2141V96.1528C26.9247 96.2352 26.9508 96.3177 26.9749 96.4041C27.9699 96.7257 28.6775 97.0051 29.6443 96.2192Z" fill="url(#paint18_linear_162_135)"/>
<path d="M21.6361 91.6061C21.2844 92.6935 22.3959 94.8483 23.4753 95.9599C24.5547 97.0714 25.2844 96.8202 26.3798 96.5006C26.7316 95.4131 27.0311 94.6714 25.9517 93.5579C24.8723 92.4443 22.7336 91.2885 21.6361 91.6061Z" fill="url(#paint19_linear_162_135)"/>
<path d="M26.9247 109.278V116.372H22.386L21.5076 109.278H26.9247Z" fill="url(#paint20_linear_162_135)"/>
<path d="M32.3396 109.278L31.4612 116.372H26.9246V109.278H32.3396Z" fill="url(#paint21_linear_162_135)"/>
<path d="M33.7387 106.888V108.661C33.7387 108.846 33.6652 109.024 33.5344 109.155C33.4036 109.285 33.2262 109.359 33.0412 109.359H26.9347V106.191H33.0513C33.2345 106.194 33.4093 106.268 33.538 106.399C33.6666 106.529 33.7387 106.705 33.7387 106.888Z" fill="url(#paint22_linear_162_135)"/>
<path d="M22.9146 116.382L11.3849 118.593C11.1984 118.612 11.0271 118.705 10.909 118.851C10.7908 118.997 10.7353 119.183 10.7548 119.37C10.7743 119.556 10.867 119.728 11.0127 119.846C11.1584 119.964 11.3451 120.02 11.5317 120H141.755C141.938 120.008 142.117 119.943 142.254 119.821C142.391 119.699 142.475 119.528 142.488 119.344C142.501 119.161 142.441 118.98 142.323 118.84C142.205 118.7 142.036 118.611 141.853 118.593L125.047 116.478H124.951L23.0613 116.378C23.0124 116.374 22.9632 116.376 22.9146 116.382Z" fill="#E4E7FF"/>
<path d="M29.9178 95.9759C29.8234 96.0663 29.7329 96.1487 29.6445 96.2191C28.6776 97.005 27.9701 96.7256 26.9751 96.404C26.951 96.3176 26.9249 96.2352 26.9028 96.1527C26.6254 95.1899 26.4907 94.4924 27.5178 93.4995C28.6294 92.4201 30.7822 91.3085 31.8716 91.6603C32.1892 92.7578 31.0314 94.8985 29.9178 95.9759Z" fill="url(#paint23_linear_162_135)"/>
</g>
<defs>
<linearGradient id="paint0_linear_162_135" x1="128.135" y1="56.9749" x2="93.7669" y2="121.644" gradientUnits="userSpaceOnUse">
<stop offset="0.02" stop-opacity="0"/>
<stop offset="0.32" stop-color="#19161F" stop-opacity="0.36"/>
<stop offset="0.76" stop-color="#393247" stop-opacity="0.82"/>
<stop offset="0.99" stop-color="#453D56"/>
</linearGradient>
<linearGradient id="paint1_linear_162_135" x1="81.5699" y1="-13.9518" x2="77.7427" y2="38.599" gradientUnits="userSpaceOnUse">
<stop offset="0.01" stop-color="#553C8B"/>
<stop offset="0.1" stop-color="#553C8B" stop-opacity="0.77"/>
<stop offset="0.99" stop-color="#553C8B" stop-opacity="0.22"/>
</linearGradient>
<linearGradient id="paint2_linear_162_135" x1="80.0483" y1="55.2784" x2="66.3297" y2="-17.8854" gradientUnits="userSpaceOnUse">
<stop offset="0.01" stop-color="#553C8B" stop-opacity="0.41"/>
<stop offset="0.21" stop-color="#553C8B" stop-opacity="0.42"/>
<stop offset="0.99" stop-color="#553C8B" stop-opacity="0.33"/>
</linearGradient>
<linearGradient id="paint3_linear_162_135" x1="61.7226" y1="68.7357" x2="-53.0673" y2="69.0733" gradientUnits="userSpaceOnUse">
<stop offset="0.03" stop-color="#B79AF6"/>
<stop offset="0.62" stop-color="#6F618D" stop-opacity="0.66"/>
<stop offset="0.99" stop-color="#553C8B"/>
</linearGradient>
<linearGradient id="paint4_linear_162_135" x1="127.638" y1="63.1859" x2="96.4523" y2="63.602" gradientUnits="userSpaceOnUse">
<stop stop-color="#687CFD"/>
<stop offset="0.01" stop-color="#677BF9"/>
<stop offset="0.12" stop-color="#9EA9F0"/>
<stop offset="0.24" stop-color="#6E53A9"/>
<stop offset="0.37" stop-color="#604C8B"/>
<stop offset="0.5" stop-color="#553C8B"/>
<stop offset="0.63" stop-color="#4C4263"/>
<stop offset="0.79" stop-color="#484059"/>
<stop offset="0.99" stop-color="#453D56"/>
</linearGradient>
<linearGradient id="paint5_linear_162_135" x1="86.8964" y1="25.2322" x2="87.2743" y2="30.9669" gradientUnits="userSpaceOnUse">
<stop stop-color="#677BF9"/>
<stop offset="1" stop-color="#4F1AC1"/>
</linearGradient>
<linearGradient id="paint6_linear_162_135" x1="86.8964" y1="40.0804" x2="87.2743" y2="45.8171" gradientUnits="userSpaceOnUse">
<stop stop-color="#311866"/>
<stop offset="1" stop-color="#4F1AC1"/>
</linearGradient>
<linearGradient id="paint7_linear_162_135" x1="89.6703" y1="40.0804" x2="90.0462" y2="45.8171" gradientUnits="userSpaceOnUse">
<stop stop-color="#311866"/>
<stop offset="1" stop-color="#4F1AC1"/>
</linearGradient>
<linearGradient id="paint8_linear_162_135" x1="92.4423" y1="40.0804" x2="92.8182" y2="45.8171" gradientUnits="userSpaceOnUse">
<stop stop-color="#311866"/>
<stop offset="1" stop-color="#4F1AC1"/>
</linearGradient>
<linearGradient id="paint9_linear_162_135" x1="86.8964" y1="69.9839" x2="87.2743" y2="75.7206" gradientUnits="userSpaceOnUse">
<stop stop-color="#311866"/>
<stop offset="1" stop-color="#4F1AC1"/>
</linearGradient>
<linearGradient id="paint10_linear_162_135" x1="89.6703" y1="69.9839" x2="90.0462" y2="75.7206" gradientUnits="userSpaceOnUse">
<stop stop-color="#311866"/>
<stop offset="1" stop-color="#4F1AC1"/>
</linearGradient>
<linearGradient id="paint11_linear_162_135" x1="92.4423" y1="69.9839" x2="92.8182" y2="75.7206" gradientUnits="userSpaceOnUse">
<stop stop-color="#311866"/>
<stop offset="1" stop-color="#4F1AC1"/>
</linearGradient>
<linearGradient id="paint12_linear_162_135" x1="141.339" y1="46.796" x2="122.679" y2="39.5196" gradientUnits="userSpaceOnUse">
<stop stop-color="#DFBDA9"/>
<stop offset="0.16" stop-color="#F2E5D7"/>
<stop offset="0.42" stop-color="#EDE2DA"/>
<stop offset="0.7" stop-color="#EEE3D9"/>
</linearGradient>
<linearGradient id="paint13_linear_162_135" x1="117.387" y1="52.4503" x2="120.79" y2="52.4503" gradientUnits="userSpaceOnUse">
<stop stop-color="#CCC1FF"/>
<stop offset="0.42" stop-color="#EEE3D9"/>
<stop offset="1" stop-color="#DFBDA9"/>
</linearGradient>
<linearGradient id="paint14_linear_162_135" x1="118.667" y1="64.0763" x2="121.508" y2="64.0763" gradientUnits="userSpaceOnUse">
<stop stop-color="#EDE2DA"/>
<stop offset="0.42" stop-color="#EEE3D9"/>
<stop offset="1" stop-color="#E0D0CC"/>
</linearGradient>
<linearGradient id="paint15_linear_162_135" x1="128.43" y1="50.0041" x2="120.686" y2="59.0995" gradientUnits="userSpaceOnUse">
<stop stop-color="#E0D0CC"/>
<stop offset="0.42" stop-color="#D1D1EF"/>
<stop offset="1" stop-color="#FDFDFD"/>
</linearGradient>
<linearGradient id="paint16_linear_162_135" x1="26.1127" y1="98.3899" x2="23.0132" y2="105.198" gradientUnits="userSpaceOnUse">
<stop offset="0.01"/>
<stop offset="0.1" stop-opacity="0.77"/>
<stop offset="0.99" stop-opacity="0"/>
</linearGradient>
<linearGradient id="paint17_linear_162_135" x1="33.5056" y1="103.124" x2="24.0242" y2="101.908" gradientUnits="userSpaceOnUse">
<stop offset="0.01"/>
<stop offset="0.1" stop-opacity="0.77"/>
<stop offset="0.99" stop-opacity="0"/>
</linearGradient>
<linearGradient id="paint18_linear_162_135" x1="33.781" y1="93.58" x2="21.9277" y2="100.997" gradientUnits="userSpaceOnUse">
<stop offset="0.01"/>
<stop offset="0.1" stop-opacity="0.77"/>
<stop offset="0.99" stop-opacity="0"/>
</linearGradient>
<linearGradient id="paint19_linear_162_135" x1="31.7045" y1="85.1116" x2="18.9386" y2="99.9438" gradientUnits="userSpaceOnUse">
<stop offset="0.01"/>
<stop offset="0.1" stop-opacity="0.77"/>
<stop offset="0.99" stop-opacity="0"/>
</linearGradient>
<linearGradient id="paint20_linear_162_135" x1="18.9247" y1="111.23" x2="32.1709" y2="114.917" gradientUnits="userSpaceOnUse">
<stop offset="0.01" stop-color="#553C8B"/>
<stop offset="0.1" stop-color="#553C8B" stop-opacity="0.77"/>
<stop offset="0.99" stop-opacity="0"/>
</linearGradient>
<linearGradient id="paint21_linear_162_135" x1="28.5969" y1="107.863" x2="32.5849" y2="126.979" gradientUnits="userSpaceOnUse">
<stop offset="0.01" stop-color="#553C8B"/>
<stop offset="0.1" stop-color="#553C8B" stop-opacity="0.77"/>
<stop offset="0.99" stop-opacity="0"/>
</linearGradient>
<linearGradient id="paint22_linear_162_135" x1="30.3799" y1="103.711" x2="30.2573" y2="113.256" gradientUnits="userSpaceOnUse">
<stop offset="0.01" stop-color="#553C8B"/>
<stop offset="0.1" stop-color="#553C8B" stop-opacity="0.77"/>
<stop offset="0.99" stop-opacity="0"/>
</linearGradient>
<linearGradient id="paint23_linear_162_135" x1="25.2103" y1="89.3728" x2="34.9952" y2="100.193" gradientUnits="userSpaceOnUse">
<stop offset="0.01"/>
<stop offset="0.1" stop-opacity="0.77"/>
<stop offset="0.99" stop-opacity="0"/>
</linearGradient>
<clipPath id="clip0_162_135">
<rect width="146.846" height="120" fill="white"/>
</clipPath>
</defs>
</svg>
