<svg width="123" height="122" viewBox="0 0 143 142" fill="none" xmlns="http://www.w3.org/2000/svg">
    <path
        d="M15.6216 0.323967C13.7207 0.93715 12.6476 1.88758 8.99921 6.11855C6.66911 8.81656 5.44274 10.0123 4.6456 10.2882C1.2731 11.5146 -0.750409 15.5616 0.261343 19.118C0.721231 20.835 3.20462 23.5023 4.73758 23.9622C5.41208 24.1768 6.73043 25.4338 9.18316 28.2545C13.5981 33.2826 14.7631 34.0797 17.9823 34.0797C20.0058 34.0797 20.5271 33.9571 21.968 33.1599C25.0033 31.4737 26.5669 28.8063 26.8122 24.882C26.9655 22.8585 27.1188 22.3066 27.7013 21.6627C28.0999 21.2335 28.6211 20.2831 28.897 19.5473C29.7555 17.0945 29.3876 14.7644 27.8239 12.7716C27.1494 11.8825 26.9655 11.2999 26.8428 9.36842C26.6895 6.88503 25.7698 4.46295 24.3595 2.80736C22.4586 0.507922 18.4729 -0.595808 15.6216 0.323967ZM19.7912 5.41339C20.7723 6.02657 21.968 8.05008 21.9987 9.15381C21.9987 9.64435 21.5695 9.70567 17.2159 9.70567H12.433L13.6901 8.20337C16.572 4.76955 17.7984 4.21768 19.7912 5.41339ZM23.685 15.3776C24.6967 16.3587 24.6967 17.769 23.685 18.7501L22.9491 19.5166H14.6405H6.33186L5.59604 18.7501C4.46165 17.6157 4.73758 15.6536 6.17856 14.979C6.57713 14.7644 10.011 14.6418 14.8858 14.6418L22.9491 14.6111L23.685 15.3776ZM21.9987 24.79C21.9987 25.9857 21.2322 27.5493 20.2818 28.3771C18.4422 30.002 16.6333 29.5728 14.4872 26.9974C12.0958 24.1461 11.8199 24.4221 17.2159 24.4221C20.8336 24.4221 21.9987 24.5141 21.9987 24.79Z"
        fill="#9EA9F0" />
    <path
        d="M37.5123 15.3163C36.5005 16.3281 36.4699 17.7384 37.4203 18.7195C38.3707 19.6699 41.6819 20.0685 42.755 19.3327C43.8894 18.6275 44.2266 17.5851 43.7667 16.4507C43.2762 15.2243 42.663 14.9484 40.2716 14.7031C38.432 14.5498 38.2481 14.5805 37.5123 15.3163Z"
        fill="#553C8B" />
    <path
        d="M105.453 19.9152C104.871 20.0991 103.767 20.835 102.939 21.5708C100.67 23.5943 100.486 24.4527 100.486 32.4548V39.1385H79.1781C60.9053 39.1385 57.5021 39.1998 55.4786 39.629C47.6605 41.2233 41.3141 46.4967 38.3401 53.8549C36.8072 57.6566 36.7152 59.0976 36.7152 76.7266V93.068L24.7888 93.1599C13.2609 93.2519 12.801 93.2826 12.0039 93.8958C10.0417 95.3367 9.88843 95.8273 9.88843 100.457C9.88843 105.086 10.0417 105.577 12.0039 107.018C12.8317 107.662 12.985 107.662 51.7382 107.754L90.6447 107.815L90.7367 123.421C90.8286 138.658 90.8593 139.057 91.4725 139.885C93.0054 141.969 93.1281 142 100.456 142H107.139L108.212 141.172C110.359 139.547 110.297 139.946 110.297 123.022V107.815H123.266C135.622 107.815 136.266 107.784 137.584 107.171C139.27 106.405 140.496 105.27 141.355 103.676C142.029 102.45 142.029 102.296 142.121 80.9883C142.183 62.2555 142.152 59.2202 141.723 57.0741C140.742 52.2606 138.412 48.1216 134.855 44.9331C132.433 42.7256 130.164 41.4073 126.945 40.2729C124.554 39.4451 123.757 39.3224 119.74 39.1998L115.203 39.0465V36.6551V34.233H118.82C123.695 34.233 125.198 33.7731 127.344 31.6576C129.306 29.6648 129.919 27.9172 129.919 24.2075C129.919 21.5401 129.459 20.0685 128.539 19.7006C127.65 19.3633 106.557 19.5473 105.453 19.9152ZM125.014 25.3725C125.014 26.8135 124.155 28.3158 123.021 28.837C122.224 29.2356 120.905 29.3275 116.92 29.3275C111.891 29.3275 111.799 29.3275 111.064 30.094L110.297 30.8298V46.0981V61.3664H107.844H105.392V43.6454V25.9244L106.158 25.1886L106.894 24.4221H115.969H125.014V25.3725ZM66.6692 44.9637C71.6666 46.7113 75.867 50.9423 77.5839 55.9704C78.2277 57.9632 78.2584 58.3311 78.3503 75.5309L78.4423 93.0986H60.0162H41.59L41.682 75.8375L41.774 58.6071L42.5711 56.5529C43.6748 53.7322 45.1465 51.3715 46.894 49.6546L48.3657 48.2136V49.348C48.3657 50.8196 49.4694 52.0153 50.8184 52.0153C51.4009 52.0153 52.0448 51.7394 52.5047 51.2489C53.1792 50.605 53.2711 50.2371 53.2711 48.3669C53.2711 47.1712 53.1179 46.1288 52.9339 46.0061C52.382 45.6689 53.0565 45.301 55.4173 44.6571C58.4832 43.8293 63.8486 43.9826 66.6692 44.9637ZM100.486 54.4374C100.486 61.1824 100.364 64.9228 100.18 65.0455C99.9957 65.1681 99.4745 65.9653 99.0146 66.8237C98.3095 68.2034 98.1868 68.7859 98.1868 71.024C98.1868 74.0899 98.892 75.8988 100.915 77.9223C102.97 79.9458 104.779 80.6817 107.844 80.651C110.052 80.651 110.696 80.5284 112.045 79.8232C117.379 77.0639 119.219 70.4722 115.969 65.6893L115.203 64.5549V54.2535V43.952L119.434 44.1359C122.684 44.2586 124.063 44.4425 125.535 44.9637C130.532 46.7113 134.733 50.9423 136.449 55.9704C137.124 57.9632 137.124 58.1778 137.216 79.1487C137.247 90.7685 137.216 100.61 137.124 101.009C137.032 101.377 136.695 101.959 136.357 102.296C135.744 102.91 135.223 102.91 109.531 102.91H83.3171V81.1415C83.3171 62.4088 83.2558 59.0056 82.8266 56.9821C81.9068 52.5365 80.1286 49.164 76.94 45.7915L75.2538 44.0439H87.8547H100.486V54.4374ZM109.899 66.6091C112.259 67.7435 113.363 70.7174 112.29 72.9862C110.757 76.2361 106.526 76.8799 104.196 74.2432C100.732 70.2882 105.146 64.371 109.899 66.6091ZM78.4117 100.457V102.91H46.5261H14.6406V100.457V98.0041H46.5261H78.4117V100.457ZM105.392 122.531V137.248H100.486H95.5808V122.531V107.815H100.486H105.392V122.531Z"
        fill="#553C8B" />
    <path
        d="M49.2548 57.81C48.4577 58.6378 48.3657 58.9137 48.3657 60.7532C48.3657 62.5008 48.4577 62.8687 49.1322 63.5126C49.5921 64.0031 50.2359 64.2791 50.8185 64.2791C51.401 64.2791 52.0448 64.0031 52.5047 63.5126C53.1792 62.8687 53.2712 62.5008 53.2712 60.7532C53.2712 58.9137 53.1792 58.6378 52.3821 57.81C51.8915 57.3194 51.1864 56.9209 50.8185 56.9209C50.4505 56.9209 49.7454 57.3194 49.2548 57.81Z"
        fill="#553C8B" />
    <path
        d="M50.2972 69.5524C49.9293 69.7363 49.4694 70.2575 49.2548 70.7481C48.9482 71.4839 48.9789 71.8825 49.4388 73.1088C50.5119 75.8988 52.7193 77.0945 54.191 75.6229C55.2334 74.5805 55.2334 73.722 54.2216 71.6985C52.9952 69.2764 52.0142 68.7246 50.2972 69.5524Z"
        fill="#553C8B" />
    <path
        d="M59.2803 76.5733C57.5634 77.9223 58.6672 80.835 60.9666 80.835C62.2236 80.835 62.7448 80.559 63.2354 79.5779C63.8792 78.3516 63.8179 77.8304 62.8061 76.8186C61.7331 75.7455 60.4454 75.6536 59.2803 76.5733Z"
        fill="#553C8B" />
    <path
        d="M48.2122 20.8043C46.6793 21.6321 46.4953 22.6439 47.4764 24.9127C48.3962 27.0281 48.8867 27.488 50.2051 27.488C51.5541 27.488 52.6578 26.4763 52.6578 25.2193C52.6578 23.9316 51.2475 21.2029 50.3584 20.8043C49.3773 20.3445 49.0094 20.3445 48.2122 20.8043Z"
        fill="#553C8B" />
    <path
        d="M49.2548 33.2825C48.4577 34.1103 48.3657 34.3862 48.3657 36.2258C48.3657 37.9734 48.4577 38.3413 49.1322 38.9851C49.5921 39.4757 50.2359 39.7516 50.8185 39.7516C51.401 39.7516 52.0448 39.4757 52.5047 38.9851C53.1792 38.3413 53.2712 37.9734 53.2712 36.2258C53.2712 34.3862 53.1792 34.1103 52.3821 33.2825C51.8915 32.792 51.1864 32.3934 50.8185 32.3934C50.4505 32.3934 49.7454 32.792 49.2548 33.2825Z"
        fill="#553C8B" />
</svg>