<svg width="324" height="324" viewBox="0 0 324 324" fill="none" xmlns="http://www.w3.org/2000/svg">
<path d="M291.7 296.911C291.7 297.982 290.832 298.85 289.761 298.85H44.4763C43.4052 298.85 42.537 297.982 42.537 296.911C42.537 295.84 43.4052 294.972 44.4763 294.972H64.6906H67.7973H69.6953H71.1665H72.9087H73.5493H75.2655H79.2355H80.8939H84.1852H85.9057H88.5156H90.3346H93.1338H94.9213H99.9728H214.684H217.05H218.517H219.742H221.088H221.617H222.942H226.088H227.369H230.011H231.341H233.446H234.854H236.984H238.365H242.429H289.761C290.832 294.972 291.7 295.84 291.7 296.911ZM168.459 140.972C168.576 140.699 169.012 140.816 168.982 141.08C168.846 142.252 168.753 143.434 168.874 144.596C168.876 144.617 168.88 144.637 168.883 144.658C168.947 144.612 169.011 144.566 169.075 144.524C168.875 142.983 169.191 141.287 169.768 139.949C169.886 139.676 170.322 139.793 170.291 140.057C170.156 141.229 170.063 142.411 170.183 143.573C170.199 143.717 170.22 143.861 170.244 144.003C170.247 144.002 170.249 144.002 170.251 144.001C170.193 142.635 170.494 141.204 170.995 140.043C171.113 139.77 171.549 139.887 171.519 140.151C171.383 141.323 171.29 142.505 171.411 143.667C171.417 143.731 171.428 143.793 171.436 143.856C171.501 143.856 171.566 143.856 171.633 143.858C171.648 142.628 171.937 141.375 172.385 140.337C172.502 140.064 172.938 140.182 172.908 140.446C172.772 141.618 172.679 142.8 172.8 143.962C173.457 144.95 174.029 145.922 174.336 146.923H175.453H175.796L173.233 131.029H172.89H164.942H164.6L167.163 146.923H167.506H168.117C167.402 145.092 167.701 142.726 168.459 140.972Z" fill="#553C8B"/>
<path d="M149.951 102.77L145.483 105.442L138.529 109.607L134.737 111.875L130.946 109.607L123.988 105.442L119.52 102.77L119.52 102.77H119.52H123.988V104.575L130.946 108.739H138.529L145.483 104.575V102.77H149.951ZM130.16 102.756C130.16 99.9944 132.163 97.5985 135.223 97.5985C137.605 97.5985 139.31 99.2363 139.31 101.51C139.31 103.487 138.201 104.732 136.739 104.732C136.102 104.732 135.642 104.407 135.575 103.69H135.547C135.128 104.38 134.519 104.732 133.801 104.732C132.922 104.732 132.285 104.082 132.285 102.972C132.285 101.321 133.503 99.8186 135.453 99.8186C136.048 99.8186 136.725 99.9678 137.063 100.157L136.657 102.661C136.522 103.46 136.616 103.826 136.996 103.839C137.577 103.852 138.308 103.108 138.308 101.551C138.308 99.7914 137.171 98.4247 135.073 98.4247C133.002 98.4247 131.189 100.049 131.189 102.634C131.189 104.895 132.637 106.181 134.654 106.181C135.344 106.181 136.075 106.032 136.616 105.748L136.86 106.532C136.048 106.898 135.344 107.02 134.383 107.02C132.137 107.019 130.16 105.408 130.16 102.756ZM135.466 102.228L135.656 100.942C135.547 100.914 135.412 100.888 135.236 100.888C134.343 100.888 133.639 101.767 133.639 102.81C133.639 103.324 133.869 103.649 134.316 103.649C134.817 103.649 135.345 103.013 135.466 102.228Z" fill="black"/>
<path d="M145.483 105.442L149.951 102.77V120.979H119.52V102.77L123.988 105.442L130.946 109.607L134.737 111.875L138.529 109.607L145.483 105.442ZM135.466 102.228L135.655 100.942C135.547 100.914 135.412 100.888 135.236 100.888C134.343 100.888 133.639 101.767 133.639 102.81C133.639 103.324 133.869 103.649 134.316 103.649C134.817 103.649 135.345 103.013 135.466 102.228ZM123.988 102.77V95.877H145.483V102.769V104.575L138.529 108.739H130.946L123.988 104.575V102.77ZM134.383 107.019C135.345 107.019 136.048 106.897 136.861 106.532L136.617 105.747C136.075 106.031 135.344 106.18 134.654 106.18C132.637 106.18 131.189 104.894 131.189 102.634C131.189 100.048 133.003 98.4242 135.074 98.4242C137.172 98.4242 138.309 99.7915 138.309 101.551C138.309 103.107 137.578 103.852 136.996 103.838C136.617 103.825 136.523 103.459 136.658 102.661L137.064 100.157C136.726 99.9673 136.048 99.8181 135.453 99.8181C133.504 99.8181 132.286 101.32 132.286 102.972C132.286 104.082 132.922 104.731 133.802 104.731C134.519 104.731 135.128 104.379 135.548 103.689H135.575C135.642 104.406 136.103 104.731 136.739 104.731C138.201 104.731 139.311 103.486 139.311 101.51C139.311 99.2357 137.606 97.598 135.223 97.598C132.164 97.598 130.161 99.9939 130.161 102.755C130.16 105.408 132.137 107.019 134.383 107.019Z" fill="#ECEFF1"/>
<path d="M188.632 168.816C188.617 168.835 188.601 168.854 188.587 168.874C187.25 170.611 184.643 170.639 183.284 168.921L169.953 152.07C169.031 150.503 168.421 148.783 168.146 147.005C168.135 146.979 168.129 146.949 168.118 146.922C167.403 145.092 167.701 142.726 168.459 140.971C168.577 140.698 169.013 140.815 168.982 141.079C168.847 142.251 168.754 143.433 168.874 144.595C168.877 144.616 168.88 144.637 168.883 144.657C168.947 144.611 169.011 144.565 169.076 144.524C168.876 142.982 169.192 141.286 169.769 139.948C169.886 139.675 170.322 139.793 170.292 140.057C170.156 141.228 170.063 142.411 170.184 143.573C170.199 143.717 170.22 143.86 170.245 144.002C170.247 144.002 170.25 144.001 170.252 144C170.193 142.635 170.495 141.204 170.996 140.042C171.114 139.769 171.55 139.887 171.519 140.151C171.384 141.323 171.29 142.505 171.411 143.667C171.418 143.731 171.429 143.793 171.437 143.856C171.502 143.855 171.567 143.856 171.633 143.857C171.648 142.628 171.937 141.375 172.385 140.337C172.503 140.064 172.939 140.181 172.908 140.445C172.773 141.617 172.679 142.799 172.8 143.961C173.457 144.95 174.029 145.922 174.336 146.922C174.672 148.014 174.69 149.14 174.145 150.36L184.124 157.65L187.48 160.102C190.279 162.147 190.763 166.083 188.632 168.816ZM242.541 272.838L243.122 273.223L245.143 272.744C245.839 272.578 246.467 272.201 246.938 271.663L248.947 269.376L246.329 266.91L241.976 272.463L242.541 272.838ZM182.168 283.207L183.543 284.765C184.016 285.301 184.644 285.677 185.341 285.84L188.305 286.535L189.248 283.065L182.299 281.839L182.168 283.207ZM206.456 137.565C208.118 134.824 210.079 132.295 212.596 130.387L212.586 130.354L211.029 125.146L210.446 123.195C210.463 122.572 210.417 121.938 210.284 121.301C210.834 120.851 211.124 120.117 210.969 119.377L210.688 118.036C210.466 116.979 209.421 116.296 208.364 116.517C207.307 116.739 206.624 117.784 206.845 118.841L207.004 119.601L205.934 119.826L203.365 113.776L201.623 113.297L200.46 110.384L191.998 112.157L193.816 120.832L195.067 126.803C195.729 129.963 198.829 131.989 201.989 131.327L203.312 131.05L203.426 131.429L205.359 137.893L206.456 137.565ZM200.908 165.803L203.711 163.705L190.295 144.104L189.165 142.453L184.907 135.197L176.9 134.059L177.133 134.945L181.023 136.22L178.374 138.334L178.712 140.941L181.222 141.956L182.068 141.295L182.409 142.59L185.047 143.892L187.513 150.209L192.686 163.458C193.978 166.765 198.066 167.931 200.908 165.803Z" fill="#FFD2BB"/>
<path d="M246.938 271.663L248.947 269.376L249.401 268.858C249.401 268.858 253.526 269.847 256.102 271.468C256.491 271.712 256.589 272.234 256.306 272.596L248.575 282.457L245.556 286.308L242.987 289.584L242.015 290.824C241.789 291.112 241.339 291.062 241.183 290.731L240.717 289.747C240.637 289.578 240.569 289.406 240.509 289.232C240.074 287.966 240.163 286.57 240.773 285.362L242.379 282.179C242.993 280.963 243.618 279.542 243.704 278.167C243.734 277.678 243.698 277.194 243.565 276.726L243.488 276.462L242.963 274.659L242.582 273.352L243.122 273.224L245.143 272.744C245.839 272.579 246.466 272.201 246.938 271.663ZM183.542 284.765L182.167 283.207L181.8 282.791L179.286 285.247C177.954 286.529 175.764 286.727 173.916 286.769L170.353 286.85C168.813 286.885 167.375 287.629 166.458 288.865L165.809 289.74C165.591 290.034 165.758 290.455 166.118 290.518L188.927 294.544C189.379 294.624 189.794 294.292 189.826 293.834C190.044 290.799 188.974 286.693 188.974 286.693L188.304 286.536L185.34 285.841C184.644 285.677 184.016 285.301 183.542 284.765Z" fill="#553C8B"/>
<path d="M191.999 112.158L193.817 120.833C192.933 120.74 192.114 120.445 191.738 119.681C191.379 118.954 191.588 118.061 191.306 117.301C190.847 116.06 189.337 115.64 188.04 115.376C186.743 115.111 185.232 114.644 184.833 113.382C184.458 112.198 185.291 110.974 185.314 109.733C185.337 108.525 184.604 107.457 184.046 106.385C183.489 105.313 183.108 103.949 183.786 102.949C184.302 102.189 185.275 101.891 186.187 101.781C187.1 101.671 188.047 101.69 188.897 101.343C190.406 100.725 191.242 99.1269 192.51 98.1025C194.403 96.5736 197.345 96.529 199.284 98.0007C200.364 98.8215 201.156 100.05 202.404 100.584C203.611 101.101 205.004 100.862 206.286 101.146C208.227 101.576 209.803 103.323 210.03 105.298C210.12 106.078 210.026 106.907 210.364 107.617C210.712 108.349 211.448 108.803 212.136 109.234C213.022 109.79 213.917 110.403 214.467 111.293C215.018 112.183 215.136 113.422 214.477 114.235C214.168 114.616 213.705 114.893 213.54 115.355C213.351 115.883 213.621 116.467 213.975 116.902C214.33 117.335 214.779 117.701 215.044 118.194C215.442 118.935 215.354 119.86 215.017 120.63C214.68 121.401 214.121 122.048 213.57 122.684C212.796 123.577 211.999 124.483 211.03 125.146L210.447 123.195C210.464 122.571 210.418 121.937 210.285 121.301C210.835 120.85 211.125 120.117 210.97 119.376L210.689 118.036C210.467 116.979 209.422 116.296 208.365 116.517C207.308 116.738 206.625 117.784 206.846 118.841L207.005 119.601L205.935 119.825L203.366 113.775L201.624 113.296L200.461 110.384L191.999 112.158Z" fill="#553C8B"/>
<path d="M233.042 129.076C232.785 128.459 232.52 127.846 232.247 127.238C232.19 127.111 232.247 126.962 232.374 126.905C232.5 126.848 232.649 126.904 232.706 127.032C232.98 127.645 233.247 128.261 233.506 128.882C233.559 129.01 233.499 129.157 233.371 129.211C233.339 129.224 233.307 129.23 233.274 129.23C233.176 129.23 233.083 129.172 233.042 129.076ZM234.372 186.654C234.142 187.286 233.904 187.915 233.658 188.539C233.607 188.668 233.671 188.814 233.8 188.865C233.83 188.877 233.861 188.882 233.892 188.882C233.993 188.882 234.087 188.822 234.126 188.723C234.374 188.094 234.614 187.462 234.844 186.825C234.892 186.695 234.825 186.551 234.694 186.503C234.563 186.457 234.419 186.524 234.372 186.654ZM232.295 191.789C232.021 192.403 231.74 193.013 231.451 193.619C231.391 193.744 231.444 193.894 231.569 193.954C231.604 193.971 231.641 193.978 231.677 193.978C231.771 193.978 231.861 193.926 231.904 193.836C232.195 193.226 232.478 192.613 232.754 191.994C232.811 191.867 232.754 191.719 232.627 191.662C232.501 191.606 232.352 191.662 232.295 191.789ZM229.864 196.763C229.547 197.356 229.224 197.944 228.894 198.528C228.826 198.648 228.868 198.801 228.989 198.87C229.028 198.893 229.071 198.903 229.112 198.903C229.2 198.903 229.285 198.857 229.331 198.776C229.664 198.188 229.989 197.597 230.307 197C230.373 196.878 230.326 196.725 230.204 196.66C230.081 196.595 229.929 196.64 229.864 196.763ZM230.966 124.206C231.004 124.206 231.043 124.197 231.079 124.179C231.203 124.117 231.253 123.966 231.191 123.842C230.889 123.24 230.579 122.643 230.262 122.051C230.196 121.928 230.042 121.883 229.922 121.948C229.799 122.014 229.753 122.166 229.818 122.288C230.133 122.877 230.441 123.471 230.742 124.068C230.786 124.155 230.874 124.206 230.966 124.206ZM228.311 119.353C228.354 119.353 228.398 119.341 228.439 119.317C228.558 119.246 228.598 119.092 228.526 118.973C228.183 118.393 227.832 117.819 227.475 117.25C227.4 117.132 227.246 117.098 227.128 117.17C227.01 117.244 226.975 117.399 227.049 117.517C227.404 118.083 227.752 118.654 228.094 119.229C228.141 119.308 228.225 119.353 228.311 119.353ZM225.323 114.693C225.372 114.693 225.422 114.678 225.465 114.648C225.58 114.569 225.608 114.413 225.529 114.299C225.146 113.744 224.756 113.196 224.359 112.652C224.277 112.54 224.119 112.515 224.008 112.597C223.896 112.678 223.871 112.836 223.953 112.948C224.347 113.488 224.735 114.034 225.116 114.584C225.165 114.655 225.243 114.693 225.323 114.693ZM235.225 134.408C235.252 134.408 235.279 134.404 235.306 134.395C235.438 134.35 235.508 134.208 235.464 134.077C235.248 133.436 235.024 132.801 234.793 132.168C234.745 132.038 234.601 131.971 234.47 132.019C234.34 132.066 234.273 132.211 234.321 132.341C234.551 132.969 234.773 133.601 234.988 134.237C235.023 134.342 235.12 134.408 235.225 134.408ZM227.091 201.552C226.735 202.12 226.371 202.684 226.001 203.243C225.924 203.359 225.956 203.515 226.072 203.592C226.114 203.619 226.162 203.633 226.21 203.633C226.292 203.633 226.371 203.594 226.42 203.521C226.793 202.958 227.158 202.391 227.517 201.819C227.591 201.701 227.555 201.546 227.438 201.472C227.32 201.399 227.164 201.434 227.091 201.552ZM238.068 145.124C238.204 145.099 238.294 144.968 238.268 144.831C238.144 144.167 238.012 143.506 237.871 142.848C237.842 142.712 237.709 142.624 237.573 142.654C237.437 142.683 237.35 142.817 237.38 142.953C237.519 143.606 237.651 144.264 237.775 144.924C237.798 145.044 237.903 145.129 238.021 145.129C238.037 145.129 238.052 145.127 238.068 145.124ZM237.158 178.292C237.178 178.296 237.197 178.299 237.216 178.299C237.33 178.299 237.434 178.221 237.461 178.106C237.617 177.451 237.764 176.793 237.904 176.132C237.933 175.996 237.847 175.863 237.711 175.834C237.574 175.808 237.442 175.892 237.413 176.027C237.274 176.684 237.127 177.337 236.972 177.988C236.94 178.124 237.023 178.259 237.158 178.292ZM236.392 181.218C236.256 181.176 236.119 181.256 236.081 181.39C235.896 182.035 235.704 182.677 235.503 183.315C235.462 183.448 235.536 183.589 235.668 183.63C235.693 183.638 235.718 183.642 235.743 183.642C235.85 183.642 235.949 183.573 235.982 183.466C236.185 182.823 236.378 182.177 236.564 181.528C236.602 181.395 236.525 181.256 236.392 181.218ZM236.812 139.719C236.833 139.719 236.855 139.716 236.876 139.711C237.01 139.676 237.091 139.538 237.055 139.405C236.885 138.751 236.707 138.101 236.52 137.454C236.482 137.32 236.341 137.244 236.209 137.282C236.076 137.32 235.999 137.459 236.037 137.593C236.222 138.236 236.4 138.882 236.569 139.531C236.599 139.644 236.7 139.719 236.812 139.719ZM238.27 172.861C238.284 172.863 238.297 172.864 238.311 172.864C238.432 172.864 238.538 172.777 238.559 172.654C238.67 171.99 238.771 171.324 238.864 170.655C238.883 170.517 238.787 170.39 238.65 170.371C238.517 170.355 238.385 170.448 238.366 170.585C238.274 171.25 238.173 171.913 238.064 172.572C238.04 172.709 238.132 172.838 238.27 172.861ZM238.925 153.887C238.973 154.554 239.012 155.223 239.043 155.894C239.049 156.028 239.16 156.134 239.294 156.134C239.297 156.134 239.302 156.134 239.305 156.134C239.444 156.127 239.551 156.01 239.545 155.871C239.514 155.196 239.475 154.523 239.427 153.852C239.417 153.713 239.287 153.607 239.159 153.619C239.02 153.629 238.916 153.749 238.925 153.887ZM239.023 167.368C239.151 167.368 239.261 167.27 239.273 167.14C239.336 166.47 239.391 165.799 239.438 165.124C239.447 164.986 239.342 164.866 239.204 164.856C239.065 164.849 238.946 164.951 238.936 165.089C238.89 165.759 238.836 166.427 238.773 167.092C238.76 167.231 238.861 167.353 239 167.366C239.007 167.368 239.015 167.368 239.023 167.368ZM239.604 161.59C239.62 160.918 239.629 160.244 239.629 159.568V159.41C239.629 159.271 239.516 159.158 239.377 159.158C239.238 159.158 239.126 159.271 239.126 159.41V159.568C239.126 160.239 239.118 160.909 239.101 161.577C239.097 161.716 239.207 161.831 239.346 161.835C239.348 161.835 239.35 161.835 239.352 161.835C239.488 161.835 239.6 161.726 239.604 161.59ZM223.992 206.133C223.598 206.675 223.196 207.212 222.788 207.744C222.704 207.854 222.724 208.012 222.834 208.097C222.88 208.132 222.934 208.149 222.987 208.149C223.062 208.149 223.137 208.115 223.186 208.051C223.597 207.515 224.001 206.975 224.399 206.429C224.481 206.317 224.456 206.161 224.343 206.078C224.231 205.997 224.074 206.021 223.992 206.133ZM238.557 148.109C238.419 148.129 238.323 148.256 238.344 148.393C238.437 149.055 238.522 149.72 238.599 150.387C238.615 150.515 238.723 150.61 238.849 150.61C238.858 150.61 238.868 150.609 238.878 150.608C239.016 150.592 239.115 150.468 239.099 150.329C239.021 149.658 238.936 148.989 238.841 148.324C238.822 148.185 238.697 148.088 238.557 148.109ZM102.956 104.601C103.422 104.119 103.893 103.643 104.369 103.173C104.468 103.075 104.47 102.916 104.372 102.817C104.274 102.718 104.115 102.718 104.016 102.815C103.536 103.288 103.062 103.767 102.594 104.252C102.498 104.352 102.5 104.511 102.6 104.608C102.649 104.655 102.712 104.678 102.775 104.678C102.842 104.678 102.907 104.651 102.956 104.601ZM106.802 218.852C106.871 218.852 106.939 218.824 106.989 218.769C107.082 218.666 107.074 218.507 106.97 218.414C106.472 217.966 105.98 217.511 105.494 217.05C105.393 216.955 105.234 216.959 105.139 217.059C105.043 217.16 105.048 217.319 105.149 217.415C105.638 217.879 106.133 218.336 106.634 218.787C106.682 218.831 106.742 218.852 106.802 218.852ZM97.6719 208.879C97.5636 208.965 97.5457 209.123 97.6322 209.231C98.0524 209.759 98.4796 210.28 98.9129 210.795C98.9624 210.855 99.0337 210.885 99.1056 210.885C99.1627 210.885 99.2199 210.866 99.2672 210.826C99.3734 210.737 99.3875 210.578 99.2977 210.472C98.8672 209.96 98.4426 209.442 98.0252 208.918C97.9386 208.809 97.7808 208.792 97.6719 208.879ZM99.2596 108.709C99.6901 108.196 100.128 107.687 100.571 107.185C100.663 107.081 100.653 106.922 100.548 106.83C100.445 106.739 100.286 106.749 100.194 106.852C99.7478 107.358 99.3081 107.869 98.8743 108.386C98.785 108.492 98.7991 108.651 98.9053 108.74C98.9526 108.779 99.0098 108.799 99.0664 108.799C99.1388 108.799 99.2095 108.768 99.2596 108.709ZM101.263 213.098C101.161 213.191 101.154 213.35 101.248 213.452C101.704 213.949 102.166 214.44 102.634 214.925C102.684 214.976 102.749 215.001 102.815 215.001C102.877 215.001 102.941 214.978 102.99 214.931C103.089 214.834 103.092 214.675 102.996 214.575C102.53 214.094 102.071 213.607 101.619 213.113C101.524 213.01 101.365 213.004 101.263 213.098ZM111.048 222.418C111.123 222.418 111.197 222.385 111.246 222.322C111.332 222.213 111.312 222.054 111.203 221.969C110.675 221.556 110.152 221.136 109.635 220.71C109.529 220.621 109.37 220.637 109.282 220.744C109.193 220.851 109.209 221.009 109.316 221.097C109.836 221.526 110.362 221.949 110.894 222.365C110.94 222.401 110.994 222.418 111.048 222.418ZM120.113 228.593C120.153 228.616 120.196 228.627 120.239 228.627C120.326 228.627 120.411 228.581 120.457 228.501C120.526 228.381 120.485 228.227 120.365 228.158C119.784 227.822 119.207 227.478 118.636 227.128C118.517 227.055 118.362 227.093 118.29 227.211C118.218 227.329 118.255 227.484 118.373 227.556C118.948 227.909 119.528 228.255 120.113 228.593ZM125.03 231.211C125.065 231.229 125.103 231.237 125.14 231.237C125.233 231.237 125.322 231.185 125.366 231.096C125.427 230.971 125.375 230.821 125.25 230.76C124.646 230.465 124.047 230.162 123.451 229.852C123.328 229.788 123.176 229.835 123.112 229.959C123.048 230.082 123.096 230.234 123.219 230.298C123.819 230.61 124.422 230.915 125.03 231.211ZM130.12 233.479C130.151 233.491 130.183 233.497 130.214 233.497C130.314 233.497 130.407 233.437 130.447 233.339C130.499 233.211 130.437 233.064 130.308 233.012C129.685 232.76 129.065 232.5 128.449 232.233C128.322 232.178 128.174 232.237 128.119 232.364C128.064 232.491 128.122 232.64 128.249 232.695C128.869 232.964 129.492 233.225 130.12 233.479ZM115.534 225.682C115.615 225.682 115.694 225.643 115.743 225.571C115.821 225.456 115.791 225.3 115.675 225.223C115.12 224.846 114.568 224.464 114.022 224.075C113.91 223.995 113.753 224.021 113.672 224.133C113.591 224.247 113.617 224.403 113.731 224.484C114.28 224.875 114.834 225.261 115.393 225.638C115.437 225.668 115.486 225.682 115.534 225.682ZM87.337 127.568C87.4334 127.568 87.5254 127.512 87.5667 127.419C87.84 126.805 88.1208 126.195 88.4093 125.589C88.4686 125.464 88.4158 125.314 88.2901 125.254C88.1644 125.195 88.0152 125.248 87.9554 125.373C87.6652 125.983 87.3828 126.597 87.1073 127.215C87.0513 127.342 87.1079 127.49 87.2347 127.547C87.2685 127.561 87.3028 127.568 87.337 127.568ZM88.7805 194.885C88.6564 194.948 88.6063 195.099 88.6684 195.223C88.9699 195.825 89.2785 196.422 89.5947 197.015C89.6399 197.1 89.727 197.148 89.8168 197.148C89.8565 197.148 89.8968 197.139 89.9349 197.118C90.0574 197.053 90.1036 196.901 90.0383 196.778C89.7243 196.189 89.4173 195.595 89.1174 194.998C89.0559 194.873 88.9051 194.824 88.7805 194.885ZM89.7711 122.576C89.8609 122.576 89.948 122.527 89.9931 122.442C90.3088 121.849 90.6316 121.261 90.9614 120.677C91.03 120.556 90.987 120.402 90.8667 120.334C90.7459 120.266 90.5924 120.308 90.5244 120.429C90.1918 121.017 89.8674 121.609 89.5501 122.206C89.4848 122.328 89.5316 122.481 89.6541 122.546C89.6911 122.567 89.7314 122.576 89.7711 122.576ZM86.4934 189.852C86.3655 189.905 86.3045 190.052 86.3579 190.18C86.6164 190.801 86.8826 191.419 87.1563 192.031C87.1982 192.125 87.2897 192.18 87.386 192.18C87.4203 192.18 87.4552 192.173 87.4884 192.158C87.6152 192.101 87.6718 191.953 87.6152 191.826C87.343 191.217 87.0785 190.603 86.8216 189.987C86.7693 189.859 86.6219 189.8 86.4934 189.852ZM92.5475 117.769C92.6313 117.769 92.7129 117.727 92.7608 117.651C93.1168 117.081 93.4793 116.517 93.8494 115.958C93.9262 115.842 93.8946 115.686 93.7787 115.609C93.6627 115.532 93.5065 115.564 93.4303 115.68C93.058 116.244 92.6928 116.811 92.3347 117.384C92.2612 117.501 92.2971 117.657 92.4147 117.73C92.456 117.757 92.5023 117.769 92.5475 117.769ZM91.4148 199.75C91.2956 199.821 91.2559 199.975 91.3267 200.095C91.6696 200.674 92.0201 201.248 92.3771 201.818C92.425 201.894 92.5067 201.936 92.5905 201.936C92.6362 201.936 92.6825 201.923 92.7238 201.898C92.8414 201.824 92.8768 201.669 92.8033 201.551C92.4484 200.985 92.1006 200.413 91.7594 199.838C91.6886 199.72 91.5351 199.68 91.4148 199.75ZM94.3839 204.422C94.2696 204.501 94.2408 204.657 94.3197 204.772C94.7023 205.326 95.092 205.875 95.4877 206.42C95.5372 206.488 95.6134 206.523 95.6913 206.523C95.7424 206.523 95.7941 206.507 95.8388 206.475C95.9509 206.393 95.9759 206.236 95.8937 206.124C95.5002 205.583 95.1132 205.038 94.7328 204.486C94.6544 204.372 94.4977 204.343 94.3839 204.422ZM95.8551 113.065C96.2497 112.523 96.6509 111.986 97.0585 111.453C97.1429 111.343 97.1222 111.186 97.0117 111.101C96.9012 111.016 96.7439 111.037 96.659 111.147C96.2486 111.683 95.8453 112.223 95.4485 112.77C95.3669 112.882 95.3919 113.039 95.504 113.121C95.5487 113.154 95.6004 113.169 95.6515 113.169C95.7294 113.169 95.8061 113.134 95.8551 113.065ZM171.818 238.37C172.487 238.271 173.152 238.162 173.815 238.046C173.952 238.023 174.043 237.892 174.019 237.756C173.995 237.618 173.857 237.523 173.728 237.552C173.07 237.667 172.408 237.774 171.744 237.874C171.607 237.894 171.512 238.022 171.533 238.159C171.551 238.284 171.658 238.374 171.78 238.374C171.793 238.374 171.806 238.372 171.818 238.37ZM199.879 228.246C199.81 228.126 199.655 228.084 199.537 228.154C199.522 228.162 199.508 228.17 199.494 228.178C199.382 228.432 199.272 228.687 199.162 228.941C199.371 228.822 199.581 228.709 199.788 228.589C199.908 228.52 199.949 228.366 199.879 228.246ZM182.526 235.481C182.393 235.521 182.318 235.66 182.357 235.794C182.389 235.903 182.49 235.974 182.598 235.974C182.621 235.974 182.646 235.971 182.67 235.963C182.966 235.876 183.258 235.78 183.553 235.689C183.56 235.512 183.572 235.331 183.58 235.154C183.228 235.263 182.879 235.376 182.526 235.481ZM202.459 226.676C202.507 226.751 202.589 226.792 202.672 226.792C202.718 226.792 202.765 226.78 202.807 226.753C202.972 226.648 203.133 226.538 203.297 226.431L203.167 225.914C202.957 226.052 202.749 226.194 202.537 226.329C202.419 226.404 202.385 226.559 202.459 226.676ZM164.618 80.5237C164.751 80.5237 164.861 80.4209 164.869 80.287C164.876 80.1487 164.771 80.0295 164.633 80.0219C163.961 79.9827 163.288 79.9522 162.612 79.9305C162.61 79.9305 162.606 79.9305 162.604 79.9305C162.469 79.9305 162.357 80.0377 162.353 80.1732C162.348 80.312 162.457 80.4285 162.595 80.4328C163.267 80.4552 163.936 80.4851 164.603 80.5237C164.608 80.5232 164.613 80.5237 164.618 80.5237ZM85.259 132.721C85.3618 132.721 85.4582 132.658 85.4952 132.556C85.7249 131.923 85.9616 131.295 86.2071 130.67C86.2577 130.54 86.194 130.395 86.065 130.344C85.936 130.294 85.7902 130.357 85.7396 130.486C85.493 131.115 85.2535 131.748 85.0227 132.385C84.9754 132.515 85.0429 132.66 85.1735 132.707C85.2013 132.716 85.2307 132.721 85.259 132.721ZM177.232 237.364C177.25 237.364 177.268 237.362 177.286 237.358C177.945 237.212 178.602 237.057 179.255 236.895C179.389 236.862 179.471 236.725 179.438 236.59C179.404 236.455 179.268 236.373 179.133 236.407C178.485 236.569 177.832 236.722 177.177 236.868C177.041 236.897 176.956 237.032 176.986 237.167C177.012 237.284 177.116 237.364 177.232 237.364ZM220.584 210.487C220.152 211 219.715 211.508 219.271 212.01C219.178 212.113 219.189 212.273 219.292 212.364C219.34 212.407 219.4 212.427 219.459 212.427C219.528 212.427 219.597 212.399 219.647 212.343C220.094 211.837 220.535 211.327 220.968 210.81C221.058 210.704 221.044 210.545 220.937 210.456C220.832 210.367 220.673 210.381 220.584 210.487ZM166.294 239.001C166.969 238.948 167.64 238.886 168.309 238.816C168.446 238.802 168.547 238.678 168.532 238.54C168.518 238.402 168.391 238.299 168.256 238.316C167.592 238.386 166.925 238.447 166.255 238.5C166.117 238.511 166.013 238.632 166.024 238.77C166.035 238.902 166.145 239.002 166.274 239.002C166.281 239.001 166.288 239.001 166.294 239.001ZM157.071 80.4399C157.738 80.4165 158.407 80.4007 159.078 80.3931C159.217 80.3915 159.329 80.2777 159.327 80.1389C159.325 80.0001 159.219 79.9109 159.073 79.8902C158.397 79.8978 157.724 79.9131 157.053 79.9376C156.914 79.9425 156.805 80.0589 156.811 80.1972C156.816 80.3327 156.927 80.4399 157.062 80.4399C157.065 80.4405 157.068 80.4405 157.071 80.4399ZM135.361 235.383C135.387 235.391 135.413 235.396 135.438 235.396C135.544 235.396 135.643 235.328 135.677 235.222C135.72 235.09 135.648 234.948 135.516 234.905C134.875 234.697 134.239 234.483 133.605 234.259C133.474 234.211 133.331 234.281 133.285 234.412C133.238 234.543 133.307 234.687 133.438 234.733C134.075 234.958 134.717 235.175 135.361 235.383ZM130.09 86.1914C130.122 86.1914 130.154 86.1854 130.185 86.1729C130.805 85.9209 131.429 85.677 132.057 85.4408C132.186 85.3918 132.252 85.2471 132.203 85.117C132.154 84.9869 132.01 84.9216 131.879 84.9706C131.247 85.2084 130.619 85.4539 129.995 85.707C129.867 85.7592 129.805 85.9056 129.857 86.0346C129.897 86.1321 129.991 86.1914 130.09 86.1914ZM125.043 88.4485C125.081 88.4485 125.119 88.4404 125.154 88.423C125.753 88.129 126.357 87.8428 126.964 87.5641C127.091 87.5064 127.146 87.3567 127.088 87.231C127.03 87.1047 126.881 87.0503 126.755 87.1074C126.143 87.3883 125.536 87.6762 124.932 87.9718C124.808 88.0327 124.757 88.1835 124.817 88.3081C124.861 88.3968 124.95 88.4485 125.043 88.4485ZM146.235 237.564C145.574 237.448 144.915 237.325 144.26 237.193C144.124 237.165 143.991 237.254 143.964 237.39C143.937 237.526 144.025 237.658 144.161 237.686C144.821 237.818 145.483 237.944 146.149 238.059C146.163 238.062 146.178 238.063 146.192 238.063C146.312 238.063 146.418 237.977 146.44 237.855C146.463 237.718 146.372 237.588 146.235 237.564ZM140.708 236.911C140.728 236.916 140.748 236.918 140.768 236.918C140.881 236.918 140.984 236.841 141.012 236.727C141.045 236.593 140.963 236.456 140.829 236.423C140.178 236.261 139.53 236.092 138.885 235.914C138.751 235.879 138.613 235.956 138.576 236.09C138.539 236.224 138.617 236.363 138.751 236.399C139.4 236.579 140.052 236.749 140.708 236.911ZM135.297 84.288C135.322 84.288 135.349 84.2842 135.375 84.2755C136.01 84.0681 136.65 83.8684 137.293 83.6768C137.425 83.6371 137.502 83.4972 137.462 83.3644C137.422 83.2316 137.282 83.1554 137.149 83.1951C136.502 83.3878 135.858 83.5886 135.218 83.7976C135.087 83.8406 135.014 83.9827 135.057 84.1144C135.092 84.2211 135.191 84.288 135.297 84.288ZM220.576 108.249C220.47 108.338 220.456 108.497 220.545 108.603C220.977 109.115 221.402 109.633 221.819 110.156C221.869 110.218 221.942 110.25 222.016 110.25C222.071 110.25 222.126 110.232 222.173 110.195C222.281 110.109 222.299 109.951 222.212 109.842C221.791 109.316 221.364 108.795 220.93 108.28C220.84 108.173 220.682 108.16 220.576 108.249ZM151.559 80.8275C152.224 80.7572 152.891 80.6957 153.561 80.6424C153.699 80.6315 153.802 80.5101 153.792 80.3719C153.78 80.2336 153.663 80.1313 153.521 80.1417C152.847 80.1955 152.176 80.2576 151.507 80.3284C151.369 80.343 151.269 80.4666 151.283 80.6043C151.297 80.7333 151.406 80.8296 151.533 80.8296C151.541 80.8291 151.551 80.8285 151.559 80.8275ZM140.623 82.7559C140.643 82.7559 140.664 82.7537 140.684 82.7482C141.333 82.586 141.985 82.432 142.64 82.2856C142.776 82.2557 142.861 82.1212 142.831 81.9857C142.8 81.8502 142.667 81.7653 142.531 81.7952C141.872 81.9422 141.215 82.0973 140.563 82.2606C140.428 82.2943 140.346 82.4309 140.38 82.5654C140.408 82.6797 140.51 82.7559 140.623 82.7559ZM146.088 81.5976C146.746 81.4817 147.407 81.3734 148.071 81.2738C148.208 81.2531 148.303 81.1252 148.282 80.988C148.262 80.8509 148.136 80.7589 147.997 80.7768C147.329 80.8775 146.663 80.9864 146.001 81.1034C145.864 81.1274 145.773 81.258 145.797 81.3946C145.818 81.5165 145.924 81.602 146.044 81.602C146.058 81.6014 146.073 81.6003 146.088 81.5976ZM168.159 80.3039C168.023 80.2935 167.897 80.3899 167.883 80.5286C167.869 80.6664 167.969 80.7899 168.107 80.8041C168.775 80.8726 169.441 80.9488 170.104 81.0343C170.115 81.0354 170.126 81.0365 170.136 81.0365C170.261 81.0365 170.369 80.9439 170.385 80.8171C170.403 80.6794 170.306 80.5537 170.167 80.5357C169.501 80.4503 168.831 80.373 168.159 80.3039ZM84.5628 184.666C84.4311 184.71 84.3603 184.852 84.4044 184.984C84.6194 185.624 84.8426 186.26 85.0739 186.892C85.1109 186.994 85.2073 187.057 85.3101 187.057C85.339 187.057 85.3678 187.052 85.3961 187.042C85.5267 186.994 85.5937 186.85 85.5463 186.719C85.3167 186.091 85.0951 185.459 84.8812 184.823C84.8371 184.692 84.6951 184.622 84.5628 184.666ZM106.592 100.387C106.489 100.479 106.481 100.639 106.574 100.742C106.603 100.773 106.638 100.793 106.676 100.807V100.313C106.648 100.338 106.619 100.362 106.592 100.387ZM173.667 81.0631C173.533 81.0386 173.4 81.1312 173.377 81.2678C173.353 81.4044 173.444 81.5345 173.581 81.5584C174.243 81.6733 174.901 81.7963 175.557 81.9275C175.573 81.9307 175.59 81.9324 175.607 81.9324C175.724 81.9324 175.829 81.8502 175.853 81.7304C175.88 81.5944 175.792 81.4621 175.655 81.4349C174.996 81.3026 174.333 81.1785 173.667 81.0631ZM82.9985 179.347C82.8641 179.383 82.7836 179.52 82.8184 179.654C82.9882 180.308 83.1662 180.958 83.3518 181.605C83.3834 181.716 83.484 181.787 83.5929 181.787C83.6158 181.787 83.6392 181.785 83.6626 181.778C83.7959 181.74 83.8727 181.6 83.8346 181.467C83.65 180.824 83.4732 180.177 83.3044 179.528C83.2701 179.393 83.133 179.314 82.9985 179.347ZM155.212 238.608C155.077 238.595 154.955 238.706 154.947 238.844C154.938 238.982 155.044 239.102 155.183 239.109C155.854 239.149 156.527 239.181 157.203 239.203C157.206 239.203 157.209 239.203 157.212 239.203C157.347 239.203 157.458 239.096 157.463 238.96C157.467 238.822 157.359 238.706 157.22 238.701C156.548 238.678 155.879 238.647 155.212 238.608ZM179.109 82.2056C178.971 82.1724 178.838 82.2551 178.805 82.3896C178.772 82.524 178.854 82.6606 178.988 82.6938C179.64 82.8544 180.288 83.0236 180.933 83.2005C180.956 83.2065 180.978 83.2093 181 83.2093C181.11 83.2093 181.212 83.1363 181.243 83.0242C181.28 82.8903 181.2 82.7521 181.067 82.715C180.416 82.5371 179.764 82.3672 179.109 82.2056ZM83.4808 137.995C83.5036 138.001 83.527 138.005 83.5499 138.005C83.6593 138.005 83.76 137.933 83.7916 137.822C83.9755 137.177 84.1671 136.535 84.3669 135.897C84.4082 135.764 84.3348 135.623 84.202 135.581C84.0686 135.539 83.9282 135.614 83.8868 135.746C83.6854 136.389 83.4928 137.035 83.3072 137.685C83.2701 137.817 83.3474 137.957 83.4808 137.995ZM149.712 238.091C149.577 238.074 149.448 238.171 149.43 238.308C149.413 238.445 149.51 238.572 149.647 238.59C150.315 238.676 150.984 238.753 151.656 238.823C151.665 238.824 151.674 238.824 151.682 238.824C151.81 238.824 151.919 238.728 151.932 238.599C151.946 238.461 151.846 238.337 151.708 238.323C151.04 238.254 150.375 238.177 149.712 238.091ZM199.712 90.5027C199.593 90.4341 199.439 90.4749 199.369 90.5947C199.3 90.7149 199.341 90.8684 199.461 90.9381C200.043 91.2734 200.62 91.6163 201.192 91.9663C201.233 91.9913 201.278 92.0033 201.323 92.0033C201.407 92.0033 201.49 91.9608 201.537 91.883C201.61 91.7649 201.572 91.6098 201.454 91.5374C200.878 91.1852 200.297 90.8401 199.712 90.5027ZM208.585 96.7652C208.499 96.8746 208.519 97.0325 208.628 97.1179C209.157 97.5305 209.68 97.9496 210.197 98.3752C210.244 98.4139 210.3 98.4324 210.357 98.4324C210.43 98.4324 210.501 98.4013 210.551 98.3404C210.639 98.2332 210.624 98.0748 210.516 97.9866C209.996 97.5582 209.469 97.1364 208.937 96.7217C208.828 96.6368 208.67 96.6547 208.585 96.7652ZM212.846 100.313C212.753 100.417 212.762 100.576 212.865 100.668C213.363 101.116 213.856 101.571 214.343 102.031C214.391 102.076 214.454 102.099 214.516 102.099C214.583 102.099 214.649 102.073 214.698 102.02C214.793 101.92 214.789 101.76 214.688 101.665C214.199 101.202 213.702 100.744 213.201 100.294C213.099 100.202 212.939 100.211 212.846 100.313ZM216.85 104.148C216.75 104.245 216.747 104.404 216.844 104.504C217.31 104.985 217.769 105.472 218.224 105.965C218.273 106.019 218.341 106.046 218.408 106.046C218.469 106.046 218.531 106.024 218.578 105.979C218.681 105.885 218.687 105.726 218.593 105.624C218.136 105.129 217.674 104.638 217.205 104.154C217.108 104.055 216.949 104.052 216.85 104.148ZM184.458 83.7269C184.327 83.6844 184.184 83.7568 184.141 83.8885C184.099 84.0208 184.171 84.1623 184.304 84.2047C184.944 84.4121 185.581 84.6266 186.215 84.8492C186.242 84.859 186.271 84.8633 186.298 84.8633C186.401 84.8633 186.499 84.7986 186.535 84.6952C186.581 84.5645 186.512 84.4208 186.382 84.3751C185.743 84.1514 185.103 83.9353 184.458 83.7269ZM204.086 93.5196C204.008 93.6345 204.039 93.7907 204.154 93.8685C204.71 94.2436 205.262 94.6256 205.807 95.0143C205.851 95.0458 205.903 95.0611 205.953 95.0611C206.032 95.0611 206.109 95.0241 206.158 94.9555C206.238 94.8423 206.212 94.6855 206.099 94.605C205.549 94.2136 204.995 93.8293 204.435 93.4522C204.32 93.3754 204.164 93.4043 204.086 93.5196ZM189.7 85.627C189.572 85.5753 189.424 85.6373 189.373 85.7663C189.32 85.8953 189.383 86.0417 189.512 86.0934C190.136 86.3449 190.756 86.6034 191.371 86.8707C191.404 86.8848 191.438 86.8913 191.471 86.8913C191.569 86.8913 191.661 86.8347 191.702 86.74C191.757 86.6127 191.699 86.4646 191.571 86.4096C190.952 86.1402 190.327 85.8795 189.7 85.627ZM194.793 87.8896C194.67 87.8297 194.518 87.8803 194.457 88.0055C194.396 88.1301 194.449 88.2809 194.573 88.3413C195.177 88.6358 195.777 88.9373 196.373 89.2465C196.41 89.2655 196.449 89.2748 196.489 89.2748C196.579 89.2748 196.667 89.2252 196.711 89.1392C196.775 89.0162 196.728 88.8644 196.604 88.8001C196.005 88.4894 195.401 88.1857 194.793 87.8896ZM82.7171 140.921C82.5827 140.888 82.4466 140.973 82.4145 141.108C82.2594 141.763 82.1119 142.421 81.9726 143.082C81.9443 143.217 82.0308 143.351 82.1669 143.379C82.1843 143.383 82.2017 143.385 82.2191 143.385C82.3356 143.385 82.4401 143.304 82.4646 143.185C82.6028 142.528 82.7493 141.875 82.9033 141.224C82.9359 141.089 82.8521 140.954 82.7171 140.921ZM160.737 238.743C160.598 238.744 160.486 238.857 160.488 238.996C160.49 239.134 160.602 239.245 160.739 239.245C160.74 239.245 160.742 239.245 160.742 239.245C161.417 239.238 162.09 239.223 162.761 239.2C162.9 239.195 163.008 239.079 163.004 238.94C162.998 238.802 162.88 238.697 162.743 238.697C162.077 238.721 161.408 238.736 160.737 238.743ZM81.6112 174.227C81.7347 174.891 81.867 175.552 82.0063 176.211C82.0313 176.329 82.1359 176.41 82.2518 176.41C82.2692 176.41 82.2866 176.408 82.304 176.405C82.4396 176.376 82.5266 176.242 82.4978 176.107C82.3585 175.453 82.2278 174.795 82.1048 174.135C82.0798 173.999 81.9481 173.909 81.812 173.935C81.6759 173.959 81.5861 174.091 81.6112 174.227ZM81.6106 146.353C81.4718 146.327 81.3439 146.423 81.3221 146.56C81.2127 147.224 81.1126 147.89 81.0195 148.559C81.0005 148.697 81.0963 148.824 81.234 148.842C81.2454 148.844 81.2574 148.845 81.2688 148.845C81.3924 148.845 81.5001 148.754 81.5175 148.628C81.6095 147.963 81.7097 147.3 81.818 146.641C81.8403 146.504 81.7478 146.375 81.6106 146.353ZM80.6129 152.075C80.5503 152.744 80.4965 153.417 80.4507 154.091C80.4415 154.229 80.546 154.349 80.6848 154.359C80.6902 154.359 80.6962 154.359 80.7022 154.359C80.8334 154.359 80.9439 154.258 80.9526 154.125C80.9977 153.455 81.0516 152.787 81.1142 152.121C81.1267 151.983 81.0255 151.86 80.8873 151.847C80.7501 151.835 80.626 151.937 80.6129 152.075ZM80.9629 165.17C80.9167 164.503 80.878 163.834 80.8481 163.163C80.8415 163.024 80.7223 162.912 80.5857 162.923C80.4469 162.929 80.3397 163.047 80.3457 163.185C80.3756 163.861 80.4148 164.534 80.4611 165.204C80.4703 165.337 80.5808 165.438 80.7115 165.438C80.7174 165.438 80.7234 165.438 80.7289 165.438C80.8682 165.428 80.9733 165.308 80.9629 165.17ZM80.2885 157.625C80.2733 158.271 80.2651 158.918 80.2651 159.568V159.647C80.2651 159.786 80.3778 159.899 80.5166 159.899C80.6554 159.899 80.7681 159.786 80.7681 159.647V159.568C80.7681 158.923 80.7757 158.279 80.7915 157.638C80.7947 157.499 80.6848 157.383 80.546 157.38C80.405 157.372 80.2924 157.486 80.2885 157.625ZM81.2906 170.951C81.302 170.951 81.314 170.95 81.326 170.949C81.4637 170.93 81.5595 170.803 81.5399 170.666C81.4473 170.004 81.3624 169.339 81.2857 168.672C81.2699 168.534 81.1452 168.434 81.0075 168.451C80.8698 168.467 80.7708 168.591 80.7866 168.729C80.8639 169.4 80.9488 170.069 81.0424 170.735C81.0598 170.86 81.167 170.951 81.2906 170.951ZM235.156 268.857C236.2 269.511 237.209 270.151 238.17 270.771C238.545 271.012 238.914 271.251 239.273 271.486C239.911 271.903 240.518 272.307 241.097 272.698C241.247 272.8 241.406 272.905 241.552 273.004L241.976 272.463L246.33 266.909L246.84 266.259C242.511 260.371 236.822 255.061 230.452 251.106C230.33 251.03 230.208 250.955 230.085 250.88C227.635 249.385 225.091 248.085 222.483 247.04L215.653 195.628C207.817 198.906 193.237 196.492 189.046 191.317C187.02 204.775 184.224 220.671 183.579 235.154C183.571 235.331 183.559 235.512 183.552 235.689C183.412 239.126 183.393 242.482 183.541 245.702C183.952 254.698 183.425 263.477 182.587 272.358C182.575 272.484 182.564 272.61 182.552 272.736C182.267 275.715 181.95 278.705 181.621 281.719L182.299 281.839L189.248 283.066L190.062 283.21C192.078 278.997 193.623 274.404 194.611 269.685C194.641 269.543 194.674 269.401 194.703 269.257C195.999 262.829 196.246 256.182 195.18 249.946C194.014 243.128 196.09 236.073 199.162 228.942C199.272 228.687 199.383 228.433 199.494 228.179C200.36 226.213 201.294 224.241 202.251 222.267L203.167 225.915L203.296 226.431L208.175 245.861C209.495 251.117 212.882 255.619 217.572 258.337C217.815 258.477 218.071 258.626 218.321 258.772C218.457 258.851 218.59 258.928 218.729 259.009C222.961 261.469 228.185 264.552 232.98 267.506C233.331 267.723 233.676 267.937 234.022 268.152C234.403 268.388 234.781 268.623 235.156 268.857Z" fill="#5254BD"/>
<path d="M51.8372 201.49C46.5234 188.052 43.7361 173.597 43.7361 158.711C43.7361 137.031 49.6394 116.262 60.6737 98.2266C60.7842 98.3028 60.8985 98.3747 61.0182 98.4406C50.2735 116.012 44.0746 136.65 44.0746 158.711C44.0746 173.767 46.9632 188.16 52.2117 201.369C52.0827 201.405 51.9581 201.445 51.8372 201.49ZM159.947 42.8385C205.282 42.8385 244.613 69.0127 263.639 107.039C263.761 106.98 263.889 106.927 264.02 106.878C258.486 95.7932 251.138 85.5541 242.122 76.5374C220.172 54.588 190.989 42.5 159.948 42.5C128.906 42.5 99.7229 54.588 77.7741 76.5374C73.4475 80.8639 69.5102 85.4757 65.9669 90.3231C66.079 90.4015 66.1857 90.4847 66.288 90.5724C87.3774 61.6627 121.503 42.8385 159.947 42.8385ZM56.0527 209.978C55.9384 210.05 55.8181 210.114 55.694 210.176C61.2485 221.402 68.6573 231.769 77.773 240.885C96.4969 259.609 120.486 271.15 146.401 274.14C146.407 274.025 146.417 273.911 146.431 273.796C106.731 269.162 73.0981 244.38 56.0527 209.978ZM242.121 240.885C264.07 218.936 276.158 189.752 276.158 158.711C276.158 143.684 273.317 129.095 267.904 115.548C267.788 115.607 267.667 115.661 267.543 115.71C272.879 129.013 275.82 143.524 275.82 158.711C275.82 196.262 257.861 229.692 230.085 250.88C230.207 250.955 230.33 251.031 230.452 251.107C234.528 247.983 238.429 244.577 242.121 240.885ZM159.947 274.584C158.467 274.584 156.993 274.555 155.526 274.499C155.525 274.61 155.521 274.721 155.513 274.831C156.987 274.886 158.464 274.922 159.947 274.922C167.622 274.922 175.184 274.18 182.551 272.736C182.563 272.61 182.575 272.483 182.587 272.357C175.262 273.814 167.693 274.584 159.947 274.584ZM194.703 269.257C194.675 269.4 194.641 269.542 194.611 269.685C203.03 267.066 211.114 263.488 218.729 259.007C218.59 258.927 218.458 258.85 218.321 258.771C210.928 263.1 203.018 266.637 194.703 269.257ZM210.499 282.773C210.298 283.903 210.22 285.045 210.249 286.184C211.156 288.009 212.265 289.75 213.136 291.584C213.668 292.706 214.18 293.837 214.684 294.971H217.05C214.908 290.882 212.771 286.79 210.499 282.773ZM217.883 271.124C217.228 271.62 216.603 272.156 216.012 272.726C216.455 274.076 216.902 275.425 217.386 276.761C217.672 277.55 216.415 277.887 216.132 277.107C215.733 276.008 215.362 274.899 214.995 273.79C214.773 274.038 214.552 274.289 214.342 274.548C216.866 281.261 218.993 288.11 221.088 294.972H221.616C219.888 287.118 218.715 279.143 217.883 271.124ZM213.426 275.773C212.916 276.513 212.46 277.288 212.06 278.091C212.971 279.811 213.877 281.532 214.712 283.289C215.07 284.042 213.948 284.701 213.59 283.946C212.892 282.478 212.147 281.035 211.392 279.597C211.224 280.033 211.071 280.475 210.938 280.923C213.589 285.537 216.045 290.258 218.518 294.971H219.743C217.777 288.523 215.773 282.088 213.426 275.773ZM229.673 267.131C229.584 267.129 229.496 267.124 229.407 267.124C227.862 267.121 226.33 267.33 224.844 267.72C224.47 272.85 224.265 277.982 224.745 283.129C224.823 283.963 223.522 283.955 223.445 283.129C222.977 278.116 223.159 273.117 223.515 268.121C221.965 268.652 220.48 269.378 219.101 270.273C219.942 278.579 221.14 286.841 222.943 294.972H226.089C225.96 285.67 227.879 276.39 229.673 267.131ZM243.703 278.167C243.734 277.677 243.697 277.193 243.565 276.726L243.488 276.461C243.256 276.91 243.016 277.353 242.79 277.805C240.874 281.636 239.134 285.544 237.393 289.456C236.605 291.228 235.716 293.075 234.853 294.972H236.983C237.717 292.95 238.462 290.931 239.234 288.924C240.627 285.304 242.019 281.663 243.703 278.167ZM235.646 277.121C236.44 274.984 237.289 272.87 238.17 270.771C237.209 270.151 236.2 269.511 235.156 268.857C233.941 272.518 232.88 276.223 232.22 280.041C232.078 280.865 230.825 280.514 230.966 279.696C231.647 275.752 232.756 271.929 234.021 268.15C233.675 267.936 233.33 267.721 232.979 267.505C232.308 267.365 231.63 267.259 230.946 267.197C229.143 276.432 227.219 285.7 227.368 294.972H230.01C231.38 288.87 233.503 282.887 235.646 277.121ZM242.057 276.377C242.35 275.799 242.659 275.23 242.963 274.659L242.582 273.352L243.122 273.224L242.542 272.839C241.653 274.272 240.761 275.702 239.817 277.099C239.351 277.79 238.224 277.138 238.694 276.443C239.525 275.214 240.313 273.958 241.097 272.698C240.518 272.308 239.911 271.904 239.273 271.486C238.445 273.464 237.647 275.455 236.9 277.467C234.799 283.118 232.706 288.988 231.341 294.972H233.446C234.319 293.027 235.228 291.133 236.042 289.314C237.987 284.971 239.906 280.623 242.057 276.377ZM244.121 289.333C243.931 289.867 243.29 289.879 242.987 289.584L242.015 290.824C241.79 291.112 241.339 291.062 241.183 290.731L240.717 289.747C240.637 289.578 240.569 289.406 240.509 289.232C239.776 291.138 239.064 293.053 238.365 294.972H242.429C244.512 292.24 246.797 289.632 249.07 287.082C249.092 285.544 248.938 284.003 248.584 282.494C248.582 282.482 248.578 282.47 248.575 282.458L245.557 286.308C244.989 287.267 244.498 288.269 244.121 289.333ZM164.601 134.059L158.446 128.204H116.867C111.238 128.204 106.675 123.642 106.675 118.013V100.807V100.313V99.5003C106.675 93.8718 111.238 89.3085 116.867 89.3085H151.808C157.437 89.3085 162 93.8713 162 99.5003V122.35L164.601 134.059ZM149.951 102.77L145.483 102.769V95.877H123.988V102.769H119.52L119.52 102.77L119.52 102.77V120.979H149.951V102.77ZM67.7282 294.84C64.887 289.418 62.0578 283.991 59.0457 278.664C58.785 280.126 58.6849 281.605 58.7224 283.079C59.8959 285.441 61.3317 287.695 62.4579 290.068C63.228 291.691 63.965 293.329 64.6905 294.972H67.7973C67.7744 294.928 67.751 294.885 67.7282 294.84ZM68.6018 263.588C67.7532 264.229 66.9444 264.922 66.1808 265.661C66.7545 267.408 67.3314 269.154 67.9584 270.883C68.3285 271.905 66.7017 272.341 66.3354 271.331C65.8194 269.908 65.3393 268.474 64.8647 267.038C64.5768 267.359 64.2905 267.684 64.0189 268.019C67.3499 276.876 70.1464 285.918 72.9081 294.972H73.5488C71.2481 284.639 69.6963 274.143 68.6018 263.588ZM62.8334 269.604C62.1732 270.562 61.5827 271.565 61.0656 272.605C62.2445 274.83 63.418 277.058 64.4984 279.332C64.961 280.306 63.5094 281.159 63.0451 280.182C62.1427 278.282 61.1782 276.415 60.2013 274.554C59.983 275.117 59.7854 275.689 59.6129 276.27C63.142 282.411 66.4028 288.699 69.6952 294.972H71.1664C68.5713 286.452 65.9342 277.947 62.8334 269.604ZM83.8603 258.419C83.7454 258.417 83.6311 258.41 83.5163 258.41C81.516 258.406 79.5337 258.677 77.6108 259.182C77.1258 265.821 76.8613 272.463 77.4829 279.124C77.5835 280.204 75.8995 280.194 75.7999 279.124C75.1947 272.637 75.4298 266.167 75.8903 259.701C73.8846 260.387 71.9627 261.328 70.178 262.486C71.2845 273.414 72.8679 284.281 75.2654 294.972H79.2355C78.99 282.759 81.5051 270.575 83.8603 258.419ZM96.2362 286.624C98.0928 281.797 99.9412 276.936 102.212 272.285C102.755 271.174 103.315 270.062 103.864 268.944C103.605 268.604 103.339 268.27 103.064 267.943C102.306 269.364 101.56 270.792 100.839 272.234C98.3584 277.192 96.1067 282.251 93.8539 287.314C92.7626 289.767 91.5238 292.335 90.3345 294.972H93.1338C94.1434 292.181 95.1705 289.395 96.2362 286.624ZM91.5907 271.349C92.8045 268.083 94.1004 264.85 95.4709 261.651C94.1222 260.895 92.7082 260.265 91.2527 259.76C89.5562 264.789 88.0643 269.876 87.1581 275.129C86.9741 276.195 85.3527 275.74 85.535 274.681C86.4445 269.411 87.9435 264.306 89.6476 259.261C88.294 258.891 86.9104 258.632 85.5089 258.506C83.1423 270.63 80.619 282.799 80.8944 294.972H84.1857C85.9519 286.895 88.7566 278.975 91.5907 271.349ZM92.1034 287.129C94.6208 281.509 97.1043 275.881 99.8889 270.385C100.531 269.118 101.2 267.865 101.876 266.618C101.502 266.227 101.116 265.847 100.719 265.48C99.503 267.444 98.2838 269.406 96.9895 271.321C96.3859 272.215 94.9283 271.371 95.5363 270.471C96.8888 268.469 98.1608 266.416 99.4328 264.363C98.6283 263.706 97.7885 263.091 96.9166 262.528C95.6097 265.586 94.3731 268.676 93.2132 271.797C90.4347 279.273 87.667 287.047 85.9051 294.972H88.515C89.7157 292.274 90.9773 289.644 92.1034 287.129ZM108.966 284.24C108.995 282.249 108.795 280.255 108.337 278.302C108.316 278.213 108.29 278.124 108.268 278.035C105.861 280.781 103.775 283.732 102.56 287.154C102.2 288.169 100.575 287.729 100.937 286.707C102.36 282.697 104.881 279.326 107.731 276.181C107.057 274.182 106.12 272.278 104.968 270.511C102.479 275.577 100.315 280.733 98.274 285.997C97.1196 288.975 96.0103 291.97 94.9218 294.972H99.9733C102.773 291.245 105.88 287.703 108.966 284.24ZM215.653 195.629C215.867 195.539 216.08 195.447 216.284 195.349C221.202 176.187 222.744 156.373 221.168 136.53C220.966 133.987 219.411 131.816 217.254 131.193C215.725 130.752 214.161 130.474 212.586 130.355L212.596 130.387C210.079 132.295 208.118 134.825 206.456 137.565L205.359 137.893L203.426 131.429C199.863 132.55 196.498 134.481 193.642 137.165C193.121 137.655 192.78 138.29 192.632 138.976L190.296 144.105L203.711 163.705L200.908 165.804C198.067 167.932 193.979 166.765 192.687 163.458L187.514 150.21L184.125 157.65L187.481 160.102C190.28 162.146 190.764 166.083 188.632 168.816L192.586 165.323C191.95 174.023 190.709 182.685 189.047 191.317C193.237 196.492 207.817 198.906 215.653 195.629Z" fill="#CCC1FF"/>
</svg>
