<svg width="355" height="355" viewBox="0 0 355 355" fill="none" xmlns="http://www.w3.org/2000/svg">
<path d="M156.859 289.361L157.393 290.882L156.438 291.12L156.859 289.361ZM154.559 291.548L154.669 284.62L154.676 284.631C154.67 284.286 154.727 283.94 154.836 283.604L154.056 281.387L155.034 276.354H149.278L149.369 281.861L148.601 282.895L148.831 287.961L154.559 291.548ZM197.158 169.967C197.153 169.962 197.15 169.957 197.146 169.952C198.045 168.334 198.623 166.568 198.862 164.752C199.32 163.559 199.347 162.148 199.099 160.816C198.952 160.022 198.708 159.256 198.398 158.582C198.27 158.305 197.827 158.436 197.865 158.706C198.031 159.902 198.155 161.11 198.059 162.302C198.057 162.324 198.053 162.345 198.052 162.366C197.985 162.321 197.918 162.275 197.851 162.234C198.018 160.65 197.656 158.922 197.033 157.566C196.905 157.289 196.462 157.42 196.5 157.69C196.666 158.886 196.79 160.094 196.694 161.287C196.681 161.434 196.664 161.582 196.642 161.728C196.639 161.727 196.637 161.727 196.633 161.726C196.662 160.326 196.319 158.869 195.778 157.692C195.651 157.415 195.207 157.545 195.245 157.815C195.411 159.012 195.535 160.22 195.439 161.412C195.433 161.477 195.424 161.542 195.417 161.606C195.351 161.607 195.284 161.609 195.216 161.613C195.171 160.354 194.846 159.078 194.363 158.026C194.235 157.75 193.792 157.88 193.83 158.15C193.996 159.346 194.119 160.555 194.024 161.747C193.461 162.639 193.106 163.569 192.951 164.519C192.764 165.667 192.885 166.846 193.337 168.032C189.449 170.155 186.515 171.539 183.371 172.773C184.4 174.588 185.223 176.508 186.116 178.392C190.127 175.513 194.007 172.816 197.158 169.967ZM157.687 279.913L156.868 280.861L156.807 286.09L162.315 290.65L165.114 290.347L162.353 280.118L163.689 274.78L157.935 273.683L157.687 279.913ZM155.21 148.308L155.993 148.391L156.273 144.233L156.49 141.012C156.869 141.065 157.253 141.102 157.647 141.102H159.758C161.757 141.102 164.456 138.429 164.456 135.122L165.747 120.805C164.269 123.777 161.676 126.295 158.866 128.202C156.407 129.87 153.698 130.984 150.883 131.567L149.341 132.795C149.341 133.402 149.409 133.992 149.533 134.562L149.459 134.554L149.057 140.51C150.711 141.915 152.608 143.05 154.627 143.844C154.821 145.332 155.016 146.82 155.21 148.308ZM157.351 189.44C158.547 189.476 159.733 189.731 160.905 190.029C161.169 190.096 161.348 189.67 161.087 189.513C160.094 188.916 158.862 188.452 157.616 188.269C157.628 188.202 157.637 188.135 157.645 188.07C157.71 188.07 157.776 188.068 157.841 188.069C159.036 188.106 160.223 188.361 161.394 188.658C161.658 188.725 161.837 188.299 161.576 188.142C160.465 187.475 159.055 186.973 157.66 186.847C157.66 186.844 157.66 186.841 157.66 186.839C157.808 186.833 157.955 186.831 158.104 186.836C159.3 186.872 160.487 187.127 161.658 187.425C161.921 187.491 162.1 187.066 161.84 186.909C160.561 186.139 158.883 185.589 157.291 185.58C157.257 185.509 157.22 185.438 157.182 185.367C157.203 185.367 157.224 185.366 157.246 185.367C158.441 185.403 159.628 185.658 160.8 185.956C161.063 186.023 161.242 185.596 160.981 185.44C159.279 184.417 156.872 183.781 154.9 184.298C153.349 184.33 151.812 184.622 150.339 185.14C148.308 184.226 146.57 183.388 144.975 182.554C143.518 181.793 142.177 181.033 140.836 180.217C140.014 182.136 138.985 183.953 138.027 185.805C139.847 186.363 141.634 186.922 143.382 187.444C146.008 188.227 148.546 188.919 150.978 189.4C153.055 190.489 155.239 190.468 157.351 189.44Z" fill="#FFD2BB"/>
<path d="M292.257 298.593C292.257 299.641 291.408 300.489 290.362 300.489H50.5467C49.4994 300.489 48.651 299.64 48.651 298.593C48.651 297.547 49.5006 296.698 50.5467 296.698H71.5189H74.663H76.5244H77.6817H79.3857H79.9087H81.5885H85.229H86.8537H89.7671H91.4456H93.7271H95.4974H98.3356H100.082H104.565H147.011L147.02 296.886H148.008L148.042 296.698H155.74L155.933 296.886H162.074L161.827 296.698H166.075L169.402 297.192L168.899 296.698H238.93H241.143H242.461H243.313H244.519H244.901H246.09H248.696H249.845H251.944H253.132H254.779H256.034H258.031H259.267H262.503H290.359C291.408 296.698 292.257 297.547 292.257 298.593ZM193.83 158.149C193.793 157.88 194.236 157.749 194.362 158.025C194.846 159.077 195.171 160.353 195.216 161.611C195.284 161.608 195.351 161.606 195.417 161.605C195.424 161.54 195.433 161.476 195.439 161.411C195.535 160.218 195.411 159.01 195.245 157.814C195.207 157.545 195.651 157.414 195.778 157.69C196.319 158.868 196.661 160.325 196.633 161.725C196.636 161.726 196.639 161.726 196.642 161.727C196.663 161.581 196.681 161.434 196.694 161.285C196.789 160.093 196.666 158.885 196.5 157.689C196.462 157.419 196.905 157.289 197.033 157.565C197.656 158.921 198.019 160.649 197.851 162.233C197.917 162.274 197.985 162.319 198.052 162.365C198.053 162.344 198.057 162.323 198.059 162.301C198.154 161.108 198.031 159.901 197.865 158.705C197.827 158.435 198.271 158.305 198.398 158.581C198.706 159.255 198.952 160.02 199.099 160.814L202.106 151.226C202.112 151.21 202.107 151.199 202.112 151.184C202.187 150.873 202.009 150.66 201.686 150.708L195.939 151.494C195.63 151.457 195.292 151.7 195.187 152.037L191.394 164.133C191.321 164.363 191.394 164.536 191.549 164.612C191.577 164.625 191.607 164.635 191.64 164.642C191.653 164.644 191.668 164.643 191.681 164.644C191.724 164.648 191.764 164.659 191.814 164.651L192.951 164.518C193.107 163.567 193.461 162.638 194.024 161.746C194.12 160.553 193.997 159.346 193.83 158.149Z" fill="#553C8B"/>
<path d="M237.873 196.009C237.767 195.948 237.729 195.815 237.788 195.71C238.077 195.199 238.36 194.685 238.638 194.167C238.695 194.06 238.827 194.02 238.935 194.076C239.042 194.134 239.083 194.266 239.025 194.374C238.747 194.896 238.463 195.413 238.172 195.926C238.132 195.998 238.058 196.038 237.981 196.038C237.944 196.037 237.907 196.028 237.873 196.009ZM235.443 200.174C235.514 200.174 235.583 200.138 235.626 200.076C235.953 199.583 236.273 199.087 236.585 198.586C236.65 198.483 236.619 198.349 236.516 198.283C236.413 198.219 236.278 198.25 236.213 198.353C235.902 198.851 235.584 199.344 235.26 199.832C235.193 199.934 235.221 200.07 235.322 200.137C235.359 200.161 235.4 200.174 235.443 200.174ZM218.976 217.632C219.449 217.281 219.918 216.925 220.381 216.562C220.477 216.487 220.494 216.349 220.418 216.254C220.343 216.157 220.205 216.141 220.11 216.216C219.649 216.576 219.184 216.931 218.713 217.28C218.616 217.352 218.595 217.49 218.668 217.587C218.711 217.646 218.778 217.676 218.845 217.676C218.891 217.676 218.936 217.661 218.976 217.632ZM222.776 214.603C223.223 214.221 223.666 213.831 224.104 213.438C224.194 213.357 224.201 213.218 224.12 213.127C224.038 213.037 223.899 213.029 223.81 213.111C223.374 213.503 222.935 213.889 222.489 214.27C222.397 214.349 222.386 214.488 222.466 214.58C222.508 214.631 222.571 214.657 222.632 214.657C222.683 214.656 222.734 214.639 222.776 214.603ZM229.703 207.79C230.094 207.348 230.48 206.902 230.859 206.449C230.937 206.357 230.925 206.218 230.832 206.14C230.739 206.062 230.6 206.075 230.522 206.167C230.145 206.616 229.764 207.06 229.375 207.499C229.295 207.589 229.303 207.728 229.394 207.808C229.435 207.845 229.487 207.864 229.539 207.864C229.6 207.864 229.66 207.839 229.703 207.79ZM226.357 211.317C226.778 210.904 227.193 210.485 227.602 210.061C227.687 209.974 227.685 209.835 227.597 209.751C227.509 209.667 227.37 209.668 227.286 209.756C226.879 210.178 226.467 210.594 226.049 211.004C225.962 211.09 225.962 211.229 226.047 211.315C226.09 211.359 226.147 211.38 226.204 211.38C226.259 211.38 226.315 211.36 226.357 211.317ZM142.668 221.999C142.703 222.019 142.741 222.028 142.778 222.028C142.854 222.028 142.928 221.989 142.969 221.918C143.03 221.813 142.993 221.679 142.889 221.618C142.38 221.324 141.876 221.024 141.375 220.717C141.272 220.654 141.137 220.686 141.073 220.79C141.01 220.893 141.042 221.028 141.146 221.092C141.65 221.402 142.157 221.703 142.668 221.999ZM232.798 204.036C233.157 203.567 233.511 203.095 233.859 202.618C233.93 202.52 233.908 202.383 233.81 202.31C233.713 202.24 233.575 202.261 233.502 202.359C233.158 202.833 232.806 203.303 232.45 203.768C232.376 203.863 232.394 204.002 232.49 204.076C232.529 204.107 232.577 204.121 232.624 204.121C232.69 204.121 232.755 204.092 232.798 204.036ZM246.239 151.622C246.119 151.639 246.035 151.75 246.053 151.87C246.135 152.449 246.209 153.03 246.277 153.613C246.289 153.725 246.385 153.808 246.494 153.808C246.504 153.808 246.511 153.807 246.52 153.806C246.641 153.792 246.728 153.683 246.713 153.562C246.646 152.975 246.57 152.391 246.488 151.809C246.471 151.688 246.361 151.603 246.239 151.622ZM240.223 191.731C240.305 191.731 240.384 191.685 240.421 191.606C240.676 191.073 240.924 190.536 241.165 189.996C241.214 189.885 241.165 189.755 241.054 189.705C240.943 189.657 240.813 189.706 240.763 189.817C240.524 190.354 240.278 190.888 240.025 191.417C239.972 191.527 240.019 191.657 240.129 191.709C240.159 191.724 240.191 191.731 240.223 191.731ZM245.988 173.265C246 173.268 246.012 173.268 246.024 173.268C246.13 173.268 246.223 173.192 246.241 173.084C246.337 172.503 246.426 171.92 246.508 171.335C246.524 171.215 246.441 171.103 246.321 171.088C246.205 171.074 246.089 171.154 246.073 171.274C245.992 171.855 245.904 172.435 245.809 173.012C245.787 173.132 245.868 173.245 245.988 173.265ZM246.571 166.47C246.53 167.056 246.483 167.64 246.427 168.221C246.416 168.342 246.505 168.45 246.626 168.461C246.633 168.462 246.639 168.462 246.647 168.462C246.758 168.462 246.855 168.377 246.865 168.263C246.921 167.678 246.969 167.09 247.008 166.5C247.017 166.379 246.925 166.274 246.804 166.266C246.684 166.26 246.579 166.349 246.571 166.47ZM246.765 156.44C246.644 156.448 246.553 156.553 246.561 156.675C246.602 157.257 246.636 157.842 246.663 158.429C246.669 158.547 246.765 158.639 246.882 158.639C246.885 158.639 246.889 158.639 246.893 158.639C247.014 158.633 247.107 158.531 247.103 158.409C247.076 157.819 247.042 157.23 247 156.643C246.991 156.521 246.878 156.429 246.765 156.44ZM247.154 163.409C247.169 162.822 247.176 162.233 247.176 161.642V161.504C247.176 161.382 247.078 161.284 246.956 161.284C246.835 161.284 246.737 161.382 246.737 161.504V161.642C246.737 162.229 246.73 162.815 246.715 163.399C246.712 163.52 246.808 163.622 246.929 163.625C246.932 163.625 246.933 163.625 246.934 163.625C247.053 163.624 247.151 163.529 247.154 163.409ZM242.16 187.275C242.247 187.275 242.33 187.222 242.364 187.136C242.58 186.586 242.79 186.033 242.992 185.476C243.034 185.363 242.976 185.237 242.861 185.195C242.746 185.154 242.621 185.212 242.579 185.326C242.377 185.879 242.17 186.428 241.954 186.974C241.91 187.087 241.966 187.215 242.078 187.26C242.105 187.27 242.132 187.275 242.16 187.275ZM243.778 182.692C243.871 182.692 243.959 182.632 243.987 182.538C244.164 181.976 244.334 181.411 244.495 180.844C244.529 180.728 244.461 180.606 244.344 180.573C244.226 180.536 244.106 180.607 244.073 180.723C243.912 181.287 243.743 181.848 243.568 182.407C243.531 182.523 243.596 182.646 243.712 182.682C243.735 182.689 243.756 182.692 243.778 182.692ZM245.378 146.852C245.26 146.877 245.184 146.994 245.209 147.113C245.331 147.685 245.446 148.259 245.555 148.837C245.574 148.942 245.667 149.016 245.77 149.016C245.784 149.016 245.797 149.015 245.811 149.012C245.93 148.989 246.009 148.875 245.987 148.756C245.877 148.175 245.762 147.597 245.639 147.021C245.614 146.902 245.499 146.826 245.378 146.852ZM217.729 105.234C217.798 105.234 217.865 105.202 217.908 105.142C217.978 105.043 217.956 104.906 217.856 104.836C217.375 104.494 216.891 104.158 216.401 103.827C216.3 103.761 216.165 103.786 216.096 103.887C216.028 103.987 216.054 104.124 216.155 104.191C216.642 104.519 217.125 104.853 217.601 105.193C217.64 105.221 217.685 105.234 217.729 105.234ZM192.614 229.668C192.63 229.668 192.647 229.666 192.662 229.662C193.239 229.535 193.812 229.4 194.384 229.257C194.502 229.228 194.573 229.109 194.544 228.99C194.514 228.872 194.396 228.801 194.277 228.83C193.711 228.971 193.14 229.106 192.566 229.233C192.448 229.259 192.374 229.377 192.4 229.494C192.422 229.599 192.513 229.668 192.614 229.668ZM183.05 231.1C183.64 231.054 184.227 231 184.812 230.938C184.933 230.926 185.021 230.817 185.008 230.697C184.995 230.576 184.885 230.487 184.766 230.501C184.185 230.562 183.602 230.615 183.016 230.661C182.895 230.671 182.804 230.775 182.814 230.897C182.823 231.011 182.92 231.1 183.032 231.1C183.039 231.101 183.045 231.1 183.05 231.1ZM187.881 230.548C188.465 230.462 189.048 230.367 189.627 230.265C189.746 230.244 189.826 230.129 189.806 230.01C189.785 229.891 189.665 229.807 189.551 229.832C188.975 229.932 188.397 230.026 187.816 230.114C187.696 230.131 187.613 230.244 187.631 230.364C187.647 230.473 187.742 230.551 187.848 230.551C187.859 230.551 187.87 230.55 187.881 230.548ZM178.195 231.313C178.785 231.307 179.374 231.294 179.961 231.275C180.082 231.27 180.177 231.168 180.173 231.046C180.167 230.926 180.064 230.834 179.944 230.835C179.361 230.855 178.776 230.868 178.189 230.874C178.068 230.875 177.97 230.974 177.972 231.096C177.973 231.216 178.071 231.313 178.191 231.313C178.193 231.313 178.195 231.313 178.195 231.313ZM245.015 178.014C245.032 178.018 245.05 178.02 245.067 178.02C245.166 178.02 245.256 177.952 245.28 177.851C245.416 177.278 245.545 176.703 245.668 176.126C245.693 176.007 245.617 175.89 245.498 175.865C245.378 175.843 245.262 175.916 245.238 176.035C245.117 176.61 244.988 177.181 244.853 177.75C244.825 177.867 244.898 177.986 245.015 178.014ZM127.541 210.114C127.596 210.114 127.652 210.093 127.694 210.052C127.781 209.968 127.783 209.829 127.7 209.742C127.293 209.32 126.892 208.895 126.496 208.463C126.413 208.373 126.274 208.368 126.185 208.451C126.096 208.533 126.09 208.672 126.172 208.761C126.571 209.195 126.975 209.625 127.385 210.048C127.427 210.091 127.485 210.114 127.541 210.114ZM134.741 216.599C134.807 216.599 134.872 216.57 134.914 216.514C134.989 216.419 134.973 216.28 134.877 216.206C134.415 215.845 133.957 215.478 133.505 215.106C133.412 215.028 133.274 215.042 133.197 215.135C133.119 215.229 133.133 215.368 133.226 215.444C133.681 215.82 134.141 216.19 134.606 216.552C134.646 216.585 134.694 216.599 134.741 216.599ZM131.029 213.482C131.089 213.482 131.149 213.457 131.191 213.409C131.273 213.319 131.265 213.179 131.176 213.098C130.741 212.706 130.31 212.308 129.884 211.905C129.797 211.822 129.657 211.825 129.574 211.914C129.49 212.002 129.494 212.141 129.583 212.224C130.01 212.63 130.444 213.029 130.881 213.424C130.923 213.463 130.975 213.482 131.029 213.482ZM138.664 219.454C138.734 219.454 138.803 219.42 138.846 219.357C138.914 219.257 138.888 219.121 138.787 219.052C138.301 218.723 137.819 218.389 137.342 218.049C137.243 217.979 137.106 218.002 137.035 218.1C136.964 218.199 136.987 218.336 137.086 218.407C137.567 218.749 138.052 219.086 138.541 219.417C138.579 219.442 138.622 219.454 138.664 219.454ZM213.565 102.528C213.601 102.55 213.64 102.56 213.68 102.56C213.754 102.56 213.826 102.523 213.867 102.455C213.93 102.351 213.898 102.216 213.795 102.152C213.291 101.845 212.784 101.543 212.272 101.248C212.168 101.187 212.033 101.224 211.972 101.328C211.911 101.434 211.947 101.568 212.053 101.629C212.56 101.922 213.065 102.222 213.565 102.528ZM209.351 100.15C209.384 100.166 209.418 100.174 209.452 100.174C209.532 100.174 209.609 100.131 209.647 100.056C209.704 99.9485 209.661 99.8159 209.554 99.7597C209.029 99.4876 208.502 99.2225 207.97 98.9633C207.862 98.9107 207.73 98.9556 207.676 99.0651C207.623 99.174 207.669 99.3059 207.778 99.3592C208.306 99.616 208.831 99.8798 209.351 100.15ZM210.501 222.773C210.54 222.846 210.616 222.887 210.694 222.887C210.729 222.887 210.765 222.878 210.799 222.86C211.316 222.578 211.829 222.29 212.338 221.996C212.443 221.935 212.479 221.8 212.418 221.696C212.357 221.59 212.222 221.554 212.118 221.615C211.613 221.908 211.103 222.194 210.59 222.474C210.482 222.532 210.443 222.665 210.501 222.773ZM214.674 220.322C214.716 220.388 214.787 220.424 214.859 220.424C214.9 220.424 214.941 220.412 214.977 220.389C215.474 220.072 215.965 219.749 216.453 219.419C216.554 219.351 216.58 219.214 216.512 219.113C216.444 219.013 216.307 218.986 216.206 219.055C215.722 219.382 215.233 219.703 214.74 220.018C214.638 220.085 214.609 220.22 214.674 220.322ZM201.695 226.768C201.728 226.856 201.811 226.911 201.901 226.911C201.927 226.911 201.953 226.906 201.978 226.896C202.532 226.689 203.08 226.475 203.626 226.254C203.739 226.209 203.793 226.081 203.748 225.968C203.701 225.856 203.573 225.802 203.461 225.847C202.919 226.066 202.373 226.279 201.823 226.486C201.71 226.527 201.652 226.653 201.695 226.768ZM197.306 228.453C197.327 228.453 197.347 228.45 197.368 228.444C197.934 228.276 198.497 228.101 199.057 227.919C199.172 227.881 199.235 227.757 199.198 227.641C199.16 227.527 199.037 227.463 198.921 227.501C198.365 227.682 197.805 227.856 197.242 228.022C197.126 228.057 197.06 228.179 197.094 228.296C197.124 228.391 197.211 228.453 197.306 228.453ZM206.169 224.923C206.207 225.004 206.286 225.052 206.369 225.052C206.401 225.052 206.431 225.045 206.461 225.032C206.996 224.787 207.528 224.536 208.055 224.278C208.164 224.225 208.209 224.093 208.155 223.984C208.102 223.874 207.969 223.831 207.861 223.884C207.337 224.14 206.809 224.389 206.278 224.633C206.168 224.682 206.119 224.813 206.169 224.923ZM204.978 98.0723C205.007 98.0847 205.037 98.09 205.066 98.09C205.151 98.09 205.231 98.0403 205.268 97.9575C205.315 97.8463 205.265 97.7167 205.153 97.6682C204.611 97.4333 204.065 97.2055 203.516 96.9842C203.405 96.9392 203.275 96.9931 203.23 97.1061C203.185 97.2179 203.239 97.3469 203.352 97.3925C203.898 97.6126 204.44 97.8386 204.978 98.0723ZM146.966 224.288C146.998 224.303 147.03 224.311 147.063 224.311C147.145 224.311 147.223 224.265 147.261 224.188C147.314 224.079 147.269 223.947 147.159 223.894C146.631 223.636 146.107 223.371 145.587 223.1C145.478 223.044 145.346 223.086 145.29 223.194C145.234 223.301 145.277 223.434 145.384 223.49C145.908 223.763 146.436 224.029 146.966 224.288ZM119.64 123.203C119.539 123.135 119.402 123.163 119.335 123.265C119.01 123.758 118.69 124.254 118.377 124.755C118.313 124.858 118.344 124.993 118.447 125.058C118.484 125.08 118.524 125.091 118.564 125.091C118.637 125.091 118.708 125.055 118.749 124.988C119.061 124.491 119.378 123.997 119.701 123.508C119.769 123.406 119.742 123.27 119.64 123.203ZM123.045 204.76C122.95 204.836 122.934 204.973 123.009 205.069C123.377 205.53 123.75 205.986 124.13 206.437C124.173 206.489 124.236 206.515 124.299 206.515C124.348 206.515 124.399 206.499 124.439 206.464C124.532 206.386 124.545 206.247 124.466 206.154C124.09 205.707 123.719 205.254 123.354 204.796C123.277 204.699 123.14 204.685 123.045 204.76ZM122.467 119.26C122.37 119.187 122.232 119.205 122.158 119.301C121.8 119.77 121.447 120.243 121.1 120.72C121.028 120.818 121.05 120.956 121.149 121.027C121.187 121.056 121.233 121.069 121.277 121.069C121.346 121.069 121.412 121.038 121.456 120.979C121.801 120.504 122.151 120.034 122.508 119.569C122.582 119.472 122.563 119.334 122.467 119.26ZM120.169 200.863C120.069 200.932 120.044 201.069 120.113 201.169C120.447 201.654 120.788 202.135 121.135 202.61C121.178 202.669 121.246 202.7 121.313 202.7C121.358 202.7 121.403 202.687 121.443 202.659C121.541 202.587 121.562 202.449 121.491 202.351C121.147 201.878 120.808 201.401 120.475 200.919C120.407 200.819 120.269 200.794 120.169 200.863ZM117.093 127.334C116.988 127.275 116.853 127.311 116.794 127.417C116.503 127.931 116.219 128.449 115.942 128.971C115.885 129.078 115.926 129.211 116.032 129.268C116.065 129.286 116.1 129.294 116.135 129.294C116.215 129.294 116.291 129.252 116.329 129.177C116.605 128.659 116.887 128.144 117.177 127.634C117.236 127.528 117.2 127.394 117.093 127.334ZM117.574 196.778C117.469 196.839 117.435 196.975 117.497 197.079C117.797 197.586 118.103 198.088 118.415 198.586C118.457 198.653 118.528 198.69 118.601 198.69C118.64 198.69 118.682 198.679 118.717 198.656C118.82 198.592 118.852 198.456 118.787 198.353C118.477 197.858 118.172 197.358 117.874 196.855C117.813 196.751 117.678 196.716 117.574 196.778ZM128.593 112.014C128.173 112.427 127.759 112.846 127.349 113.27C127.264 113.358 127.267 113.497 127.354 113.581C127.397 113.622 127.452 113.643 127.507 113.643C127.565 113.643 127.621 113.62 127.665 113.575C128.072 113.154 128.484 112.737 128.901 112.326C128.988 112.241 128.989 112.102 128.903 112.016C128.818 111.93 128.679 111.929 128.593 112.014ZM139.964 102.93C139.468 103.247 138.976 103.571 138.489 103.901C138.388 103.969 138.362 104.106 138.43 104.206C138.473 104.269 138.542 104.303 138.613 104.303C138.655 104.303 138.699 104.29 138.736 104.265C139.22 103.937 139.709 103.615 140.201 103.3C140.304 103.234 140.333 103.099 140.267 102.996C140.202 102.894 140.065 102.864 139.964 102.93ZM135.967 105.691C135.495 106.042 135.026 106.399 134.563 106.763C134.468 106.838 134.451 106.976 134.526 107.071C134.569 107.127 134.634 107.156 134.699 107.156C134.746 107.156 134.794 107.14 134.835 107.109C135.295 106.748 135.76 106.393 136.231 106.044C136.328 105.972 136.348 105.834 136.276 105.736C136.203 105.639 136.065 105.618 135.967 105.691ZM148.476 98.2794C147.941 98.5249 147.409 98.777 146.882 99.0349C146.773 99.0882 146.729 99.2201 146.782 99.329C146.82 99.4065 146.898 99.452 146.979 99.452C147.012 99.452 147.045 99.445 147.076 99.4296C147.6 99.1728 148.127 98.9225 148.659 98.6788C148.769 98.6279 148.818 98.4977 148.768 98.3871C148.716 98.277 148.586 98.2291 148.476 98.2794ZM115.269 192.524C115.161 192.579 115.116 192.711 115.171 192.818C115.435 193.345 115.705 193.867 115.981 194.386C116.021 194.46 116.097 194.502 116.176 194.502C116.21 194.502 116.246 194.493 116.278 194.475C116.386 194.419 116.426 194.286 116.369 194.178C116.094 193.663 115.826 193.144 115.564 192.621C115.51 192.513 115.379 192.47 115.269 192.524ZM132.171 108.724C131.724 109.107 131.282 109.496 130.844 109.891C130.754 109.972 130.747 110.112 130.829 110.201C130.871 110.249 130.932 110.274 130.991 110.274C131.044 110.274 131.097 110.255 131.139 110.217C131.574 109.825 132.014 109.439 132.458 109.058C132.549 108.979 132.56 108.84 132.481 108.748C132.402 108.656 132.264 108.645 132.171 108.724ZM125.56 115.526C125.469 115.446 125.33 115.454 125.25 115.545C124.86 115.987 124.475 116.434 124.096 116.886C124.018 116.979 124.031 117.117 124.123 117.196C124.165 117.23 124.215 117.247 124.264 117.247C124.327 117.247 124.389 117.22 124.433 117.168C124.81 116.719 125.192 116.275 125.579 115.836C125.66 115.745 125.65 115.606 125.56 115.526ZM144.139 100.456C143.623 100.738 143.111 101.026 142.601 101.321C142.496 101.382 142.46 101.516 142.521 101.622C142.562 101.692 142.636 101.731 142.712 101.731C142.749 101.731 142.787 101.722 142.822 101.702C143.327 101.409 143.837 101.122 144.35 100.841C144.456 100.783 144.495 100.65 144.437 100.543C144.379 100.437 144.246 100.397 144.139 100.456ZM109.561 176.368C109.576 176.368 109.592 176.366 109.607 176.363C109.726 176.338 109.802 176.221 109.776 176.103C109.654 175.531 109.541 174.956 109.433 174.379C109.411 174.259 109.297 174.181 109.177 174.203C109.057 174.225 108.979 174.34 109.001 174.459C109.109 175.04 109.225 175.618 109.347 176.194C109.368 176.298 109.46 176.368 109.561 176.368ZM109.967 145.336C109.849 145.307 109.731 145.381 109.703 145.499C109.567 146.072 109.439 146.647 109.317 147.225C109.292 147.344 109.368 147.46 109.487 147.485C109.502 147.488 109.518 147.49 109.532 147.49C109.634 147.49 109.725 147.419 109.746 147.316C109.867 146.741 109.995 146.169 110.13 145.6C110.159 145.483 110.086 145.364 109.967 145.336ZM109 150.086C108.879 150.063 108.766 150.147 108.747 150.267C108.652 150.848 108.563 151.43 108.483 152.016C108.466 152.136 108.55 152.247 108.67 152.264C108.68 152.265 108.69 152.266 108.7 152.266C108.809 152.266 108.903 152.186 108.917 152.076C108.998 151.494 109.085 150.915 109.18 150.338C109.201 150.218 109.121 150.105 109 150.086ZM110.523 180.912C110.551 181.008 110.638 181.071 110.734 181.071C110.754 181.071 110.775 181.069 110.796 181.062C110.911 181.028 110.98 180.906 110.946 180.79C110.784 180.228 110.63 179.663 110.482 179.095C110.451 178.977 110.332 178.908 110.214 178.937C110.097 178.968 110.026 179.088 110.057 179.205C110.206 179.777 110.36 180.346 110.523 180.912ZM108.72 171.595C108.731 171.595 108.74 171.595 108.751 171.593C108.871 171.576 108.955 171.465 108.938 171.345C108.857 170.766 108.783 170.185 108.716 169.601C108.703 169.481 108.593 169.393 108.473 169.408C108.353 169.422 108.266 169.531 108.28 169.652C108.347 170.238 108.422 170.823 108.504 171.406C108.518 171.516 108.612 171.595 108.72 171.595ZM111.266 140.666C111.15 140.63 111.027 140.694 110.991 140.81C110.815 141.372 110.646 141.937 110.485 142.505C110.452 142.621 110.519 142.743 110.636 142.776C110.656 142.782 110.677 142.785 110.697 142.785C110.791 142.785 110.88 142.722 110.907 142.625C111.068 142.06 111.236 141.499 111.411 140.941C111.446 140.826 111.382 140.702 111.266 140.666ZM113.27 188.122C113.159 188.169 113.105 188.298 113.152 188.409C113.378 188.952 113.61 189.492 113.85 190.028C113.887 190.11 113.966 190.158 114.051 190.158C114.081 190.158 114.112 190.152 114.14 190.14C114.251 190.09 114.301 189.959 114.251 189.849C114.014 189.317 113.782 188.78 113.557 188.241C113.511 188.128 113.382 188.077 113.27 188.122ZM112.895 136.087C112.782 136.043 112.655 136.098 112.61 136.211C112.395 136.761 112.185 137.314 111.984 137.871C111.942 137.985 112.001 138.111 112.116 138.152C112.14 138.161 112.166 138.165 112.191 138.165C112.281 138.165 112.365 138.11 112.398 138.02C112.598 137.468 112.805 136.918 113.02 136.371C113.064 136.259 113.008 136.131 112.895 136.087ZM114.841 131.636C114.731 131.584 114.601 131.63 114.548 131.74C114.295 132.273 114.048 132.81 113.807 133.35C113.758 133.461 113.808 133.591 113.918 133.64C113.948 133.653 113.978 133.659 114.008 133.659C114.092 133.659 114.172 133.611 114.209 133.529C114.448 132.991 114.693 132.458 114.945 131.928C114.997 131.819 114.951 131.688 114.841 131.636ZM111.582 183.588C111.468 183.626 111.405 183.75 111.444 183.866C111.632 184.425 111.827 184.982 112.029 185.535C112.062 185.623 112.145 185.679 112.236 185.679C112.26 185.679 112.286 185.674 112.311 185.666C112.425 185.625 112.484 185.498 112.442 185.384C112.242 184.834 112.047 184.282 111.861 183.725C111.821 183.611 111.697 183.549 111.582 183.588ZM108.206 157.087C108.32 157.087 108.416 156.998 108.424 156.882C108.464 156.296 108.511 155.712 108.566 155.13C108.577 155.01 108.488 154.902 108.367 154.891C108.247 154.88 108.139 154.969 108.128 155.09C108.073 155.676 108.026 156.263 107.986 156.853C107.977 156.974 108.07 157.079 108.191 157.087C108.195 157.086 108.2 157.087 108.206 157.087ZM107.844 159.943C107.83 160.507 107.824 161.074 107.824 161.642V161.711C107.824 161.832 107.922 161.93 108.043 161.93C108.164 161.93 108.263 161.832 108.263 161.711V161.642C108.263 161.077 108.27 160.514 108.283 159.954C108.286 159.832 108.19 159.732 108.069 159.729C107.945 159.722 107.847 159.821 107.844 159.943ZM108.215 166.775C108.22 166.775 108.225 166.775 108.23 166.774C108.351 166.765 108.442 166.661 108.434 166.54C108.393 165.957 108.36 165.372 108.334 164.785C108.328 164.664 108.223 164.565 108.103 164.576C107.983 164.582 107.889 164.684 107.894 164.806C107.921 165.396 107.954 165.984 107.995 166.571C108.003 166.686 108.1 166.775 108.215 166.775ZM198.933 95.3234C198.818 95.2867 198.694 95.3494 198.656 95.4648C198.619 95.5802 198.682 95.7044 198.798 95.7417C199.357 95.9228 199.915 96.1109 200.469 96.3056C200.493 96.3139 200.518 96.318 200.541 96.318C200.632 96.318 200.717 96.2618 200.748 96.1713C200.789 96.0571 200.729 95.9311 200.614 95.8914C200.057 95.6944 199.496 95.5056 198.933 95.3234ZM184.68 92.3302C184.562 92.3213 184.452 92.4053 184.44 92.5266C184.427 92.6473 184.515 92.755 184.636 92.7674C185.219 92.8272 185.802 92.894 186.382 92.9686C186.392 92.9698 186.4 92.9703 186.411 92.9703C186.519 92.9703 186.614 92.8893 186.628 92.7786C186.643 92.6585 186.559 92.5479 186.438 92.5325C185.854 92.458 185.268 92.3905 184.68 92.3302ZM179.83 92.003C179.828 92.003 179.825 92.003 179.822 92.003C179.705 92.003 179.607 92.097 179.603 92.2154C179.599 92.3367 179.694 92.4384 179.815 92.442C180.402 92.4615 180.988 92.4881 181.571 92.5219C181.575 92.5219 181.58 92.5225 181.584 92.5225C181.7 92.5225 181.796 92.4325 181.803 92.3154C181.81 92.1941 181.717 92.0905 181.596 92.0834C181.01 92.0491 180.421 92.0225 179.83 92.003ZM189.497 92.994C189.38 92.9727 189.263 93.0532 189.242 93.1727C189.222 93.2922 189.302 93.4058 189.422 93.4271C190 93.5271 190.576 93.6354 191.149 93.7496C191.163 93.7525 191.178 93.7537 191.192 93.7537C191.295 93.7537 191.386 93.6815 191.407 93.5768C191.431 93.4579 191.353 93.3419 191.234 93.3182C190.659 93.2035 190.079 93.0952 189.497 92.994ZM174.97 92.0101C174.849 92.0142 174.754 92.116 174.758 92.2373C174.762 92.3562 174.86 92.4491 174.978 92.4491C174.981 92.4491 174.983 92.4491 174.985 92.4491C175.569 92.4284 176.155 92.4148 176.741 92.4083C176.862 92.4071 176.96 92.3071 176.958 92.1864C176.957 92.0651 176.863 91.987 176.736 91.9692C176.145 91.9757 175.556 91.9894 174.97 92.0101ZM194.255 93.9927C194.135 93.9638 194.019 94.0359 193.989 94.1537C193.96 94.2714 194.032 94.3909 194.15 94.4193C194.719 94.5602 195.286 94.7075 195.85 94.8625C195.869 94.8678 195.888 94.8702 195.909 94.8702C196.005 94.8702 196.094 94.8063 196.12 94.7087C196.152 94.5915 196.083 94.4708 195.966 94.4383C195.399 94.2827 194.828 94.1342 194.255 93.9927ZM175.101 231.277C175.103 231.277 175.106 231.277 175.109 231.277C175.226 231.277 175.324 231.184 175.328 231.065C175.332 230.943 175.237 230.842 175.116 230.838C174.617 230.821 174.122 230.796 173.626 230.769L173.788 231.216C174.225 231.239 174.661 231.262 175.101 231.277ZM228.62 114.84C228.673 114.84 228.728 114.82 228.769 114.782C228.858 114.699 228.864 114.56 228.782 114.471C228.382 114.038 227.978 113.609 227.568 113.186C227.483 113.099 227.344 113.096 227.257 113.18C227.17 113.265 227.167 113.404 227.252 113.491C227.659 113.912 228.061 114.338 228.459 114.769C228.502 114.816 228.561 114.84 228.62 114.84ZM244.501 144.121C244.527 144.219 244.615 144.285 244.713 144.285C244.731 144.285 244.75 144.283 244.768 144.278C244.886 144.247 244.957 144.127 244.926 144.01C244.834 143.657 244.735 143.306 244.637 142.954H244.181C244.29 143.342 244.399 143.73 244.501 144.121ZM152.957 96.4109C152.404 96.6192 151.855 96.8333 151.31 97.0552C151.197 97.1008 151.143 97.2292 151.189 97.3416C151.224 97.4274 151.305 97.4788 151.392 97.4788C151.42 97.4788 151.448 97.4735 151.475 97.4629C152.017 97.2428 152.562 97.0292 153.113 96.8227C153.226 96.7801 153.284 96.6535 153.241 96.5399C153.197 96.4257 153.071 96.3683 152.957 96.4109ZM170.12 92.3515C169.999 92.3639 169.911 92.4722 169.924 92.5929C169.936 92.7059 170.031 92.7899 170.143 92.7899C170.15 92.7899 170.157 92.7893 170.166 92.7887C170.746 92.7278 171.33 92.6739 171.916 92.6272C172.037 92.6177 172.127 92.5118 172.118 92.3905C172.107 92.2692 172.005 92.1799 171.881 92.1887C171.291 92.2355 170.704 92.2899 170.12 92.3515ZM225.216 111.389C225.275 111.389 225.333 111.366 225.377 111.32C225.46 111.232 225.456 111.093 225.367 111.01C224.939 110.605 224.504 110.205 224.067 109.811C223.978 109.73 223.838 109.737 223.757 109.828C223.675 109.918 223.683 110.056 223.773 110.138C224.208 110.529 224.639 110.927 225.065 111.329C225.108 111.369 225.162 111.389 225.216 111.389ZM162.271 93.6348C161.694 93.7632 161.121 93.8987 160.549 94.0419C160.432 94.0714 160.361 94.1904 160.39 94.3081C160.414 94.4081 160.504 94.4744 160.603 94.4744C160.62 94.4744 160.638 94.472 160.656 94.4679C161.223 94.3265 161.794 94.1915 162.366 94.0637C162.485 94.0371 162.559 93.92 162.533 93.8016C162.507 93.6827 162.389 93.6082 162.271 93.6348ZM157.565 94.8589C156.999 95.0276 156.437 95.2033 155.876 95.3861C155.761 95.4234 155.698 95.5476 155.736 95.663C155.766 95.7559 155.852 95.8145 155.945 95.8145C155.967 95.8145 155.99 95.8109 156.012 95.8038C156.569 95.6222 157.128 95.4482 157.69 95.2802C157.806 95.2459 157.873 95.1234 157.838 95.0069C157.803 94.8903 157.682 94.8234 157.565 94.8589ZM221.58 108.182C221.643 108.182 221.706 108.155 221.75 108.102C221.827 108.008 221.813 107.869 221.719 107.792C221.263 107.418 220.803 107.049 220.338 106.686C220.241 106.612 220.104 106.627 220.03 106.724C219.955 106.819 219.972 106.957 220.067 107.032C220.53 107.393 220.987 107.759 221.44 108.131C221.482 108.166 221.531 108.182 221.58 108.182ZM165.305 93.0289C165.186 93.0502 165.105 93.1638 165.126 93.2833C165.145 93.3898 165.238 93.465 165.342 93.465C165.355 93.465 165.368 93.4638 165.38 93.4614C165.957 93.3597 166.534 93.265 167.115 93.178C167.235 93.1603 167.318 93.0479 167.3 92.9278C167.282 92.8076 167.172 92.7278 167.049 92.7431C166.466 92.8313 165.884 92.9266 165.305 93.0289ZM141.305 145.33C142.073 144.008 143.124 142.893 144.526 142.326C145.065 142.108 145.629 141.988 146.203 141.931C146.862 141.865 147.535 141.895 148.204 141.973C148.41 141.394 148.624 140.8 148.793 140.288C148.879 140.364 148.97 140.436 149.057 140.51L149.459 134.554L149.533 134.562C149.409 133.992 149.341 133.402 149.341 132.795L150.883 131.567C153.7 130.984 156.407 129.87 158.866 128.202C161.676 126.295 164.269 123.777 165.747 120.805L164.456 135.122C164.456 138.429 161.756 141.102 159.758 141.102H157.647C157.253 141.102 156.869 141.065 156.49 141.012L156.273 144.233L157.352 144.742L157.051 145.549C158.241 146.276 159.413 147.066 160.51 147.873C162.313 149.198 163.91 150.563 165.022 151.754C165.049 151.783 165.072 151.812 165.099 151.841L165.108 151.83L165.128 151.874C167.859 154.843 168.865 157.613 168.993 160.288L169.555 161.511C171.083 160.039 172.325 158.312 173.112 156.308C176.91 146.635 168.901 135.942 170.528 125.677C171.385 120.275 173.847 113.784 167.446 110.826C162.192 108.397 155.247 108.736 150.151 111.294C144.389 114.186 140.219 120.043 139.371 126.434C138.731 131.257 139.875 136.166 139.405 141.007C138.987 145.319 137.316 149.676 137.049 153.906L140.678 146.595C140.861 146.159 141.069 145.736 141.305 145.33ZM141.839 164.328L141.633 164.644C141.753 164.739 141.876 164.829 141.998 164.921C141.946 164.728 141.892 164.528 141.839 164.328Z" fill="#553C8B"/>
<path d="M155.033 276.353H149.277L149.765 258.69L149.774 258.354L150.003 250.096C150.094 246.807 150.804 243.564 152.099 240.54L152.903 238.658L147.508 219.055C143.465 214.466 141.037 208.607 140.641 202.416L140.294 199.415L140.435 199.385C141.096 199.732 141.798 200.053 142.522 200.358L144.593 194.441L145.074 201.312C150.717 203.163 157.549 203.872 163.634 203.169C165.796 202.919 167.865 202.497 169.747 201.877L167.391 213.547L173.626 230.768L173.788 231.215L174.263 232.53L163.689 274.779L157.935 273.681L158.451 260.728L158.464 260.408L158.55 258.26L158.145 260.343L158.083 260.657L155.033 276.353ZM191.393 164.134L195.187 152.038C195.292 151.7 195.629 151.457 195.939 151.494L201.686 150.708C202.009 150.66 202.188 150.873 202.111 151.185L202.128 151.134C202.234 150.797 201.822 150.457 201.485 150.507L195.76 151.222C195.45 151.184 195.113 151.428 195.008 151.765L191.192 163.933C191.11 164.195 191.302 164.508 191.549 164.612C191.393 164.536 191.322 164.363 191.393 164.134ZM157.352 144.742L156.273 144.233L155.993 148.391L155.21 148.308C155.015 146.82 154.821 145.331 154.627 143.843C152.608 143.048 150.712 141.915 149.057 140.51C148.97 140.435 148.879 140.363 148.793 140.287C148.624 140.799 148.409 141.394 148.204 141.972C147.534 141.893 146.862 141.864 146.203 141.93C153.951 148.922 159.418 158.038 159.985 168.247C161.853 161.707 162.604 154.432 160.512 147.872C159.415 147.066 158.242 146.275 157.053 145.548L157.352 144.742Z" fill="#5254BD"/>
<path d="M82.9654 198.3C78.3184 186.55 75.8813 173.909 75.8813 160.893C75.8813 141.935 81.0436 123.774 90.6919 108.003C90.7884 108.07 90.8884 108.132 90.9931 108.19C81.598 123.554 76.1772 141.601 76.1772 160.893C76.1772 174.058 78.703 186.644 83.2926 198.194C83.1795 198.225 83.0707 198.26 82.9654 198.3ZM86.6514 205.721C86.5515 205.783 86.4461 205.841 86.3379 205.895C91.1949 215.712 97.673 224.777 105.645 232.747C118.111 245.215 133.249 254.035 149.766 258.69L149.775 258.354C122.098 250.469 99.2184 231.086 86.6514 205.721ZM158.464 260.408C158.357 260.388 158.251 260.365 158.145 260.344L158.083 260.658C158.206 260.681 158.328 260.704 158.451 260.727L158.464 260.408ZM177.5 262.215C176.206 262.215 174.917 262.19 173.634 262.142C173.633 262.239 173.629 262.335 173.622 262.431C174.911 262.479 176.203 262.511 177.5 262.511C204.643 262.511 230.163 251.941 249.356 232.747C268.548 213.554 279.119 188.035 279.119 160.892C279.119 147.752 276.634 134.994 271.9 123.148C271.799 123.2 271.693 123.247 271.585 123.29C276.25 134.923 278.822 147.611 278.822 160.892C278.823 216.762 233.37 262.215 177.5 262.215ZM73.9442 295.337C71.1669 290.036 68.4003 284.73 65.4556 279.521C65.2006 280.951 65.1029 282.396 65.1396 283.837C66.2869 286.147 67.6915 288.351 68.792 290.671C69.7381 292.663 70.6386 294.676 71.519 296.698H74.6631C74.4235 296.245 74.1827 295.791 73.9442 295.337ZM74.7992 264.781C73.9697 265.409 73.1792 266.086 72.4319 266.808C72.9928 268.517 73.5573 270.223 74.1702 271.915C74.5317 272.913 72.9419 273.339 72.5828 272.351C72.0787 270.961 71.6089 269.558 71.145 268.154C70.8628 268.469 70.5836 268.785 70.3179 269.113C73.7265 278.175 76.5623 287.434 79.3852 296.698H79.9082C77.5043 286.199 75.9127 275.52 74.7992 264.781ZM69.1588 270.663C68.5133 271.599 67.9364 272.58 67.4306 273.597C68.5831 275.772 69.7304 277.951 70.7865 280.174C71.2397 281.126 69.8197 281.961 69.3665 281.005C68.4843 279.147 67.5412 277.321 66.5863 275.502C66.3727 276.053 66.1792 276.613 66.0106 277.18C69.4683 283.195 72.6615 289.355 75.8861 295.5C76.0961 295.9 76.3109 296.298 76.5245 296.697H77.6818C75.0228 287.956 72.3402 279.223 69.1588 270.663ZM89.7175 259.728C89.6056 259.726 89.4932 259.719 89.382 259.719C87.4259 259.715 85.4882 259.978 83.6085 260.472C83.134 266.964 82.8754 273.458 83.4825 279.97C83.5807 281.025 81.9353 281.016 81.8376 279.97C81.246 273.628 81.4755 267.301 81.9252 260.979C79.965 261.65 78.0853 262.571 76.3411 263.703C77.4652 274.807 79.087 285.848 81.5891 296.697H85.2297C84.7841 284.344 87.3348 272.022 89.7175 259.728ZM101.817 287.304C103.632 282.584 105.439 277.832 107.66 273.285C108.191 272.199 108.738 271.112 109.275 270.018C109.022 269.685 108.762 269.36 108.493 269.04C107.751 270.429 107.023 271.825 106.317 273.235C103.892 278.082 101.69 283.029 99.4882 287.98C98.2517 290.758 96.821 293.687 95.4986 296.698H98.3369C99.4634 293.555 100.618 290.421 101.817 287.304ZM97.2754 272.369C98.4623 269.176 99.7291 266.015 101.069 262.887C99.7509 262.148 98.3682 261.532 96.9453 261.038C95.2856 265.955 93.8272 270.929 92.9409 276.064C92.761 277.107 91.1759 276.662 91.354 275.627C92.2433 270.474 93.7083 265.483 95.3744 260.551C94.0508 260.189 92.6983 259.936 91.328 259.813C88.9347 272.076 86.3757 284.386 86.8532 296.698H89.7666C91.4688 288.374 94.3603 280.213 97.2754 272.369ZM97.7766 287.797C100.237 282.302 102.667 276.8 105.388 271.427C106.017 270.187 106.67 268.963 107.331 267.742C106.966 267.36 106.588 266.99 106.201 266.63C105.011 268.55 103.82 270.469 102.554 272.341C101.964 273.214 100.54 272.39 101.134 271.51C102.456 269.553 103.7 267.546 104.943 265.538C104.157 264.895 103.336 264.294 102.483 263.744C101.206 266.735 99.9965 269.755 98.8623 272.806C96.0016 280.504 93.1462 288.523 91.4463 296.697H93.7278C95.0537 293.626 96.5045 290.637 97.7766 287.797ZM114.263 284.973C114.292 283.027 114.096 281.076 113.648 279.167C113.628 279.08 113.602 278.994 113.581 278.906C111.227 281.591 109.187 284.476 108 287.822C107.648 288.815 106.059 288.385 106.413 287.385C107.804 283.465 110.268 280.169 113.055 277.095C112.397 275.139 111.48 273.278 110.354 271.551C107.921 276.504 105.804 281.545 103.809 286.692C102.522 290.011 101.286 293.35 100.082 296.699H104.565C107.531 292.6 110.907 288.738 114.263 284.973ZM240.713 295.879C238.747 292.126 236.789 288.369 234.704 284.682C234.523 285.694 234.454 286.717 234.48 287.738C235.292 289.373 236.286 290.933 237.066 292.576C237.712 293.938 238.329 295.315 238.932 296.698H241.145C241.001 296.425 240.856 296.152 240.713 295.879ZM241.317 274.246C240.731 274.691 240.171 275.171 239.642 275.681C240.039 276.891 240.439 278.099 240.872 279.296C241.129 280.003 240.003 280.305 239.75 279.605C239.393 278.621 239.061 277.627 238.732 276.634C238.532 276.856 238.334 277.081 238.147 277.313C240.542 283.682 242.538 290.187 244.522 296.697H244.904C243.219 289.312 242.101 281.801 241.317 274.246ZM237.324 278.411C236.868 279.074 236.458 279.768 236.101 280.489C236.917 282.029 237.729 283.571 238.477 285.144C238.797 285.819 237.793 286.41 237.471 285.732C236.847 284.418 236.179 283.126 235.503 281.837C235.351 282.227 235.216 282.623 235.096 283.025C237.543 287.284 239.804 291.644 242.088 295.995C242.211 296.23 242.337 296.464 242.463 296.698H243.315C241.447 290.557 239.559 284.424 237.324 278.411ZM251.879 270.669C251.8 270.668 251.72 270.663 251.641 270.663C250.257 270.66 248.885 270.848 247.554 271.197C247.219 275.792 247.035 280.39 247.466 285.001C247.536 285.748 246.369 285.741 246.301 285.001C245.882 280.51 246.044 276.032 246.363 271.556C244.975 272.031 243.644 272.683 242.409 273.484C243.2 281.296 244.34 289.064 246.093 296.697H248.698C248.408 288 250.202 279.325 251.879 270.669ZM260.445 290.192C261.73 286.851 263.01 283.486 264.582 280.267C264.958 279.497 265.344 278.728 265.725 277.954C265.547 277.719 265.362 277.488 265.171 277.262C264.646 278.244 264.13 279.234 263.631 280.232C261.914 283.663 260.355 287.165 258.796 290.67C257.941 292.593 256.954 294.617 256.036 296.698H258.034C258.815 294.522 259.615 292.351 260.445 290.192ZM257.23 279.619C258.07 277.358 258.968 275.12 259.916 272.906C258.982 272.383 258.003 271.946 256.996 271.597C255.821 275.078 254.789 278.599 254.162 282.235C254.034 282.973 252.912 282.659 253.039 281.926C253.668 278.277 254.705 274.743 255.885 271.252C254.948 270.996 253.991 270.817 253.02 270.73C251.335 279.364 249.536 288.03 249.848 296.698H251.947C253.155 290.855 255.183 285.127 257.23 279.619ZM257.585 290.541C259.327 286.651 261.047 282.756 262.973 278.951C263.418 278.075 263.881 277.207 264.349 276.343C264.09 276.073 263.823 275.811 263.548 275.556C262.706 276.915 261.862 278.274 260.967 279.599C260.549 280.218 259.541 279.634 259.961 279.011C260.898 277.625 261.778 276.204 262.659 274.783C262.102 274.328 261.521 273.903 260.918 273.513C260.014 275.63 259.157 277.768 258.355 279.929C256.346 285.333 254.343 290.96 253.136 296.698H254.784C255.704 294.574 256.704 292.507 257.585 290.541ZM269.256 288.542C269.276 287.164 269.138 285.783 268.821 284.432C268.807 284.37 268.789 284.309 268.774 284.247C267.108 286.148 265.663 288.19 264.822 290.559C264.573 291.262 263.448 290.957 263.7 290.25C264.685 287.474 266.429 285.14 268.402 282.965C267.936 281.58 267.287 280.263 266.49 279.04C264.767 282.546 263.269 286.115 261.857 289.759C260.965 292.061 260.107 294.376 259.271 296.698H262.507C264.579 293.852 266.922 291.162 269.256 288.542ZM207.348 70.5291C207.348 71.5278 207.795 72.1579 208.662 72.1579C209.635 72.1579 210.658 70.9231 210.894 69.3996L211.262 66.9039C211.052 66.8513 210.79 66.7986 210.448 66.7986C208.715 66.7986 207.348 68.5056 207.348 70.5291ZM251.865 128.112L243.005 133.085L234.144 128.112V136.651H251.864L251.865 128.112ZM249.359 127.484H236.653L243.005 131.049L249.359 127.484ZM269.389 138.108C269.389 138.126 269.389 138.144 269.389 138.163C269.372 140.835 267.112 142.955 264.44 142.955H254.862H254.152H244.638H244.182H237.445H233.244H222.596C220.914 142.955 219.318 142.12 218.435 140.689C217.286 138.827 216.622 136.634 216.622 134.285C216.622 128.227 221.033 123.201 226.818 122.238C229.304 115.112 236.079 109.997 244.053 109.997C254.133 109.997 262.305 118.169 262.305 128.25C262.305 128.778 262.275 129.299 262.231 129.816C266.279 130.413 269.389 133.893 269.389 138.108ZM253.64 125.708H232.37V138.426H253.64V125.708ZM90.5766 97.3665C89.4287 95.5051 88.7649 93.3112 88.7649 90.9629C88.7649 84.9042 93.1758 79.8786 98.9605 78.9154C101.446 71.7893 108.221 66.675 116.195 66.675C121.06 66.675 125.477 68.5825 128.75 71.6852C143.526 63.5835 160.18 59.2732 177.501 59.2732C183.165 59.2732 188.756 59.74 194.235 60.6429C197.162 54.4712 203.435 50.1959 210.72 50.1959C220.8 50.1959 228.972 58.3674 228.972 68.4482C228.972 68.9765 228.942 69.4972 228.898 70.0143C232.781 70.5882 235.792 73.814 236.034 77.7947C240.739 81.1246 245.197 84.877 249.357 89.037C257.24 96.9216 263.667 105.875 268.506 115.568C268.391 115.611 268.279 115.657 268.172 115.709C260.685 100.745 249.594 87.8915 236.056 78.2669C236.056 78.2805 236.057 78.2941 236.057 78.3077C236.057 78.3261 236.057 78.3438 236.057 78.3622C236.04 81.0347 233.781 83.1547 231.108 83.1547H221.53H220.82H204.114H199.912H189.262C187.581 83.1547 185.985 82.3198 185.102 80.8886C183.954 79.0266 183.29 76.8333 183.29 74.485C183.29 68.4263 187.701 63.4013 193.486 62.4374C193.664 61.928 193.869 61.4316 194.09 60.9441C188.689 60.0507 183.151 59.5702 177.501 59.5702C159.95 59.5702 143.434 64.0645 129.027 71.9497C132.373 75.2583 134.448 79.8502 134.448 84.9279C134.448 85.4562 134.418 85.9769 134.373 86.494C138.423 87.0928 141.533 90.5718 141.533 94.7868C141.533 94.8052 141.533 94.8229 141.533 94.8412C141.516 97.5138 139.255 99.6338 136.583 99.6338H127.005H126.295H109.589H105.387H96.863C96.4394 100.19 96.0146 100.746 95.6022 101.311C95.5134 101.234 95.4194 101.161 95.3211 101.093C95.6803 100.601 96.0619 100.121 96.4311 99.6338H94.7383C93.0556 99.6326 91.4593 98.7977 90.5766 97.3665ZM200.596 70.4244C200.596 75.5736 204.432 78.7 208.793 78.7C210.658 78.7 212.025 78.4633 213.601 77.7539L213.128 76.2298C212.078 76.7818 210.658 77.0705 209.319 77.0705C205.404 77.0705 202.593 74.5749 202.593 70.1877C202.593 65.1698 206.114 62.0168 210.133 62.0168C214.205 62.0168 216.412 64.6704 216.412 68.0855C216.412 71.1065 214.994 72.5514 213.863 72.5254C213.128 72.4993 212.943 71.7899 213.207 70.2398L213.995 65.3792C213.339 65.0112 212.025 64.7225 210.869 64.7225C207.085 64.7225 204.721 67.6388 204.721 70.8438C204.721 72.9981 205.956 74.2589 207.664 74.2589C209.057 74.2589 210.239 73.5762 211.053 72.236H211.106C211.238 73.6288 212.13 74.2589 213.365 74.2589C216.202 74.2589 218.357 71.842 218.357 68.0062C218.357 63.5924 215.045 60.4134 210.423 60.4134C204.484 60.4145 200.596 65.0644 200.596 70.4244ZM104.98 86.665C104.98 91.8604 109.207 96.0873 114.402 96.0873C119.598 96.0873 123.825 91.8604 123.825 86.665C123.825 81.4696 119.598 77.2427 114.402 77.2427C109.207 77.2427 104.98 81.4696 104.98 86.665ZM106.755 86.665C106.755 82.4482 110.186 79.0177 114.402 79.0177C118.619 79.0177 122.05 82.4482 122.05 86.665C122.05 90.8818 118.619 94.3123 114.402 94.3123C110.186 94.3123 106.755 90.8818 106.755 86.665ZM111.984 91.0049L118.312 86.665L111.984 82.3251V91.0049ZM148.008 296.887L148.043 296.698L149.212 290.316L155.74 296.698L155.933 296.887H162.075L161.828 296.698L159.488 294.91L157.394 290.883L156.439 291.121L156.859 289.361L157.05 288.561L163.326 296.289L166.076 296.697L169.403 297.192L168.899 296.697L166.955 294.785L165.114 290.347L162.315 290.649L156.807 286.089L156.867 280.861L155.447 282.501C155.161 282.834 154.961 283.21 154.835 283.603C154.726 283.937 154.669 284.285 154.674 284.63L154.667 284.619L154.557 291.547L148.829 287.959L148.598 282.893L147.267 284.685C146.767 285.357 146.556 286.132 146.61 286.854L146.603 286.845L147.01 296.697L147.017 296.885L148.008 296.887ZM144.593 194.441L145.074 201.312C150.717 203.163 157.549 203.872 163.634 203.169C165.796 202.919 167.865 202.497 169.747 201.877C170.366 201.673 170.968 201.452 171.544 201.206C168.774 191.53 167.311 186.327 166.18 177.501C165.967 175.833 166.109 174.215 166.421 172.624L171.076 181.952C171.11 182.111 171.159 182.264 171.234 182.403C171.329 182.579 171.432 182.735 171.539 182.879L171.545 182.89C171.606 183.013 171.673 183.085 171.74 183.125C172.361 183.813 173.16 184.088 174.183 184.186C176.674 184.424 179.142 183.597 181.126 182.073C182.784 180.799 184.461 179.581 186.118 178.393C185.224 176.508 184.402 174.589 183.372 172.773C181.14 173.649 178.796 174.452 175.931 175.388L169.557 161.513L168.995 160.289C168.867 157.614 167.861 154.845 165.13 151.875L165.109 151.831L165.101 151.842C165.073 151.813 165.051 151.784 165.024 151.755C163.912 150.565 162.314 149.199 160.512 147.874C162.604 154.433 161.855 161.708 159.985 168.249C159.418 158.04 153.951 148.924 146.203 141.932C145.629 141.989 145.065 142.109 144.526 142.327C143.124 142.895 142.073 144.009 141.304 145.332C141.069 145.737 140.861 146.161 140.677 146.596L137.048 153.907L126.089 175.988C125.98 176.113 125.884 176.247 125.818 176.394C125.736 176.576 125.674 176.752 125.624 176.925L125.619 176.936C125.558 177.06 125.541 177.156 125.551 177.234C125.38 178.144 125.644 178.948 126.185 179.821C127.505 181.947 129.657 183.41 132.072 184.066C134.09 184.614 136.075 185.211 138.023 185.808C138.982 183.956 140.011 182.139 140.833 180.22C138.793 178.98 136.743 177.607 134.277 175.905L141.634 164.645L141.84 164.33C141.893 164.529 141.946 164.73 142 164.922C143.207 169.294 144.402 171.933 145.482 176.605C145.903 178.427 145.611 180.321 144.972 182.557C146.568 183.391 148.306 184.229 150.337 185.143C151.81 184.625 153.346 184.333 154.897 184.301C156.869 183.784 159.276 184.419 160.979 185.443C161.239 185.599 161.061 186.026 160.797 185.959C159.626 185.662 158.44 185.405 157.243 185.37C157.222 185.369 157.201 185.37 157.179 185.37C157.217 185.441 157.255 185.512 157.289 185.583C158.881 185.591 160.558 186.142 161.837 186.911C162.098 187.068 161.92 187.494 161.655 187.428C160.484 187.131 159.298 186.874 158.102 186.839C157.953 186.834 157.805 186.836 157.657 186.842C157.658 186.844 157.658 186.847 157.658 186.85C159.053 186.976 160.463 187.478 161.574 188.145C161.834 188.302 161.656 188.728 161.391 188.661C160.22 188.364 159.034 188.108 157.838 188.073C157.773 188.071 157.708 188.073 157.643 188.073C157.634 188.138 157.625 188.205 157.614 188.273C158.86 188.455 160.092 188.919 161.084 189.516C161.345 189.673 161.167 190.099 160.903 190.032C159.732 189.735 158.545 189.479 157.349 189.443C155.236 190.471 153.052 190.493 150.973 189.404C148.54 188.923 146.003 188.232 143.376 187.448C142.316 190.609 141.114 194.435 140.291 199.318C140.336 199.343 140.387 199.363 140.433 199.388C141.094 199.735 141.795 200.056 142.52 200.361L144.593 194.441Z" fill="#CCC1FF"/>
</svg>
