<svg width="35" height="36" viewBox="0 0 35 36" fill="none" xmlns="http://www.w3.org/2000/svg">
<path fill-rule="evenodd" clip-rule="evenodd" d="M15 33.5C6.71562 33.5 0 26.7844 0 18.5C0 10.2156 6.71562 3.5 15 3.5C23.2844 3.5 30 10.2156 30 18.5C30 26.7844 23.2844 33.5 15 33.5ZM21.7425 13.4563C21.643 13.3567 21.5249 13.2777 21.3948 13.2238C21.2648 13.1699 21.1254 13.1422 20.9847 13.1422C20.8439 13.1422 20.7046 13.1699 20.5745 13.2238C20.4445 13.2777 20.3264 13.3567 20.2269 13.4563L13.3938 20.2919C13.1927 20.4927 12.9201 20.6054 12.6359 20.6054C12.3518 20.6054 12.0792 20.4927 11.8781 20.2919L9.86562 18.2787C9.66472 18.0778 9.39221 17.9648 9.10803 17.9648C8.82386 17.9647 8.5513 18.0775 8.35031 18.2784C8.14933 18.4793 8.03638 18.7519 8.03632 19.036C8.03627 19.3202 8.1491 19.5928 8.35 19.7937L11.8781 23.3219C12.2969 23.7406 12.975 23.7406 13.3938 23.3219L21.7431 14.9725C22.1619 14.5538 22.1619 13.8756 21.7431 13.4575" fill="#9EA9F0"/>
</svg>
