<svg width="28" height="28" viewBox="0 0 28 28" fill="none" xmlns="http://www.w3.org/2000/svg">
<path d="M21 10.5L20.02 20.2977C19.8718 21.7828 19.7983 22.5248 19.46 23.086C19.1633 23.58 18.7268 23.975 18.2058 24.2212C17.6143 24.5 16.87 24.5 15.3767 24.5H12.6233C11.1312 24.5 10.3857 24.5 9.79417 24.22C9.27272 23.974 8.83588 23.579 8.53883 23.0848C8.20283 22.5248 8.12817 21.7828 7.97883 20.2977L7 10.5M15.75 18.0833V12.25M12.25 18.0833V12.25M5.25 7.58333H10.6342M10.6342 7.58333L11.0845 4.466C11.2152 3.899 11.6865 3.5 12.2278 3.5H15.7722C16.3135 3.5 16.7837 3.899 16.9155 4.466L17.3658 7.58333M10.6342 7.58333H17.3658M17.3658 7.58333H22.75" stroke="#553C8B" stroke-width="1.75" stroke-linecap="round" stroke-linejoin="round"/>
</svg>
