<svg width="46" height="32" viewBox="0 0 46 32" fill="none" xmlns="http://www.w3.org/2000/svg">
<path d="M7.5852 13.9286C10.0304 13.9286 12.0184 11.9406 12.0184 9.49539C12.0184 7.05021 10.0304 5.06221 7.5852 5.06221C5.14002 5.06221 3.15201 7.05021 3.15201 9.49539C3.15201 11.9406 5.14002 13.9286 7.5852 13.9286ZM38.6175 13.9286C41.0626 13.9286 43.0506 11.9406 43.0506 9.49539C43.0506 7.05021 41.0626 5.06221 38.6175 5.06221C36.1723 5.06221 34.1843 7.05021 34.1843 9.49539C34.1843 11.9406 36.1723 13.9286 38.6175 13.9286ZM40.834 16.1452H36.4009C35.1817 16.1452 34.0804 16.637 33.2769 17.4336C36.0684 18.9644 38.0495 21.7282 38.4789 25.0115H43.0506C44.2767 25.0115 45.2672 24.021 45.2672 22.7949V20.5783C45.2672 18.1332 43.2792 16.1452 40.834 16.1452ZM23.1013 16.1452C27.389 16.1452 30.8594 12.6748 30.8594 8.38709C30.8594 4.09938 27.389 0.629028 23.1013 0.629028C18.8136 0.629028 15.3433 4.09938 15.3433 8.38709C15.3433 12.6748 18.8136 16.1452 23.1013 16.1452ZM28.4211 18.3617H27.8462C26.4054 19.0544 24.8053 19.47 23.1013 19.47C21.3973 19.47 19.8041 19.0544 18.3564 18.3617H17.7815C13.376 18.3617 9.80179 21.936 9.80179 26.3415V28.3364C9.80179 30.172 11.2911 31.6613 13.1267 31.6613H33.076C34.9116 31.6613 36.4009 30.172 36.4009 28.3364V26.3415C36.4009 21.936 32.8266 18.3617 28.4211 18.3617ZM12.9258 17.4336C12.1223 16.637 11.0209 16.1452 9.80179 16.1452H5.36861C2.92343 16.1452 0.935425 18.1332 0.935425 20.5783V22.7949C0.935425 24.021 1.92596 25.0115 3.15201 25.0115H7.71681C8.1532 21.7282 10.1343 18.9644 12.9258 17.4336Z" fill="#CCC1FF"/>
</svg>
