<svg
  width="110"
  height="31"
  viewBox="0 0 110 31"
  fill="none"
  xmlns="http://www.w3.org/2000/svg"
>
  <path
    d="M1.28516 15V4.16129H3.79355V12.9561H9.22839V15H1.28516ZM17.5973 8.52774H22.8154V10.4787H17.5973V8.52774ZM17.7831 12.9871H23.6825V15H15.2902V4.16129H23.4812V6.17419H17.7831V12.9871ZM33.4239 15L28.7477 4.16129H31.4574L35.5452 13.7613H33.9503L38.1 4.16129H40.5929L35.9013 15H33.4239ZM48.4501 8.52774H53.6682V10.4787H48.4501V8.52774ZM48.6359 12.9871H54.5353V15H46.143V4.16129H54.334V6.17419H48.6359V12.9871ZM61.1763 15V4.16129H63.6847V12.9561H69.1195V15H61.1763Z"
    fill="#CCC1FF"
  />
  <path
    d="M75.8761 30.2477C73.8254 30.2477 72.2219 29.6766 71.0658 28.5342C69.9097 27.3918 69.3316 25.7609 69.3316 23.6413V15.5484H72.6761V23.5174C72.6761 24.8938 72.9583 25.8847 73.5226 26.4903C74.0869 27.0959 74.8783 27.3987 75.8968 27.3987C76.9153 27.3987 77.7067 27.0959 78.271 26.4903C78.8353 25.8847 79.1174 24.8938 79.1174 23.5174V15.5484H82.4207V23.6413C82.4207 25.7609 81.8426 27.3918 80.6865 28.5342C79.5303 29.6766 77.9269 30.2477 75.8761 30.2477ZM92.9515 30V15.5484H99.2069C100.501 15.5484 101.616 15.7617 102.551 16.1884C103.487 16.6013 104.21 17.2 104.719 17.9845C105.228 18.769 105.483 19.7049 105.483 20.7923C105.483 21.8658 105.228 22.7948 104.719 23.5794C104.21 24.3639 103.487 24.9695 102.551 25.3961C101.616 25.809 100.501 26.0155 99.2069 26.0155H94.8095L96.296 24.5084V30H92.9515ZM96.296 24.88L94.8095 23.2903H99.0211C100.053 23.2903 100.824 23.0701 101.333 22.6297C101.843 22.1892 102.097 21.5768 102.097 20.7923C102.097 19.994 101.843 19.3746 101.333 18.9342C100.824 18.4938 100.053 18.2735 99.0211 18.2735H94.8095L96.296 16.6839V24.88Z"
    fill="#CCC1FF"
  />
  <line
    x1="69.3549"
    y1="5.4839"
    x2="105.484"
    y2="5.4839"
    stroke="#553C8B"
    stroke-width="3.22581"
  />
  <line
    x1="1.29041"
    y1="28.3871"
    x2="61.2904"
    y2="28.3871"
    stroke="#553C8B"
    stroke-width="3.22581"
  />
</svg>
